<svg viewBox="0 0 223 123" fill="none" xmlns="http://www.w3.org/2000/svg">
    <path d="M13.3212 71.0404L0 61.783L4.03436 55.7319C4.58569 54.9066 5.34935 54.3969 6.32907 54.2106C7.30506 54.0242 8.1991 54.2106 9.00374 54.7659L10.4901 55.7966C11.2984 56.3595 11.7976 57.1392 11.9839 58.1356C12.1701 59.1321 11.9839 60.0449 11.4363 60.8702L9.41351 63.9015L15.3403 68.0205L13.3287 71.0366L13.3212 71.0404ZM7.93462 62.8822L8.94414 61.3647C9.2198 60.9539 9.30921 60.4975 9.21608 59.9917C9.12295 59.4896 8.87336 59.0979 8.47104 58.8164L6.9847 57.7857C6.58238 57.5043 6.13536 57.4168 5.64736 57.5157C5.15937 57.6146 4.77567 57.8694 4.50373 58.2802L3.49421 59.7977L7.93462 62.8822Z"
          fill="white"/>
    <path d="M12.6769 44.5556L15.0834 41.8324C15.739 41.0907 16.566 40.6952 17.5569 40.6458C18.5515 40.5963 19.4083 40.9044 20.131 41.57L26.7842 47.7048C27.5031 48.3666 27.8905 49.2071 27.9427 50.2226C27.9986 51.2381 27.6968 52.1167 27.0412 52.8621L24.6347 55.5853C23.9791 56.327 23.1558 56.7263 22.1612 56.7758C21.1703 56.829 20.3098 56.5171 19.5834 55.8478L12.9302 49.7129C12.2038 49.0436 11.8164 48.203 11.7643 47.1875C11.7121 46.1758 12.0176 45.2973 12.6732 44.5556H12.6769ZM15.3292 47.0012L21.9824 53.136C22.34 53.4669 22.7647 53.619 23.2639 53.5962C23.7593 53.5734 24.1765 53.3718 24.5081 52.9952C24.8396 52.6187 24.9961 52.1775 24.9663 51.6679C24.9402 51.162 24.7465 50.7437 24.3889 50.4166L17.7357 44.2818C17.3744 43.9471 16.946 43.7987 16.4468 43.8254C15.9476 43.8558 15.5379 44.0536 15.21 44.4225C14.8785 44.7952 14.7258 45.2364 14.7481 45.7422C14.7705 46.2481 14.9642 46.6703 15.3255 47.0012H15.3292Z"
          fill="white"/>
    <path d="M31.0904 36.3664L35.1956 32.8293L38.66 37.0206C39.4236 37.9448 39.7105 38.8957 39.513 39.8655C39.3156 40.8354 38.8909 41.6036 38.2353 42.1665L35.4899 44.5322C34.7411 45.1788 33.8731 45.4564 32.8822 45.3728C31.8913 45.2891 31.083 44.8631 30.4497 44.0986L24.6682 37.1043C24.0461 36.355 23.7742 35.4726 23.8412 34.4647C23.912 33.4569 24.3292 32.6201 25.0929 31.9621L27.8383 29.5965C29.5556 28.117 31.2357 28.2615 32.8748 30.0338L31.5039 31.2167C30.6322 30.3838 29.7978 30.3115 28.9969 30.9999L27.626 32.1827C27.2498 32.506 27.0412 32.9206 26.9965 33.4264C26.9518 33.9323 27.0859 34.3735 27.4025 34.7538L33.184 41.7482C33.5006 42.1323 33.9066 42.3453 34.3984 42.3833C34.8901 42.4214 35.3259 42.2806 35.7022 41.9536C36.5403 41.1587 36.6149 40.3029 35.9257 39.3825L33.6086 36.5794L32.2378 37.7623L31.0904 36.374V36.3664Z"
          fill="white"/>
    <path d="M44.728 36.9681L38.0302 26.1437C37.5087 25.2994 37.3559 24.3828 37.572 23.3939C37.7918 22.405 38.3133 21.6443 39.1403 21.1081L42.1763 19.1493C43.0033 18.6169 43.9048 18.4609 44.8733 18.6853C45.8419 18.9097 46.5906 19.4422 47.1084 20.2827L53.8063 31.1071L50.7814 33.0582L46.952 26.8701L43.916 28.8289L47.7454 35.0169L44.7206 36.9681H44.728ZM42.9735 27.2961L46.0095 25.3374L44.091 22.2377C43.8303 21.8193 43.4578 21.5531 42.9698 21.4466C42.4818 21.3401 42.0347 21.4161 41.6212 21.6824C41.204 21.9524 40.9433 22.3327 40.8315 22.8272C40.7198 23.3216 40.7943 23.778 41.055 24.2002L42.9735 27.2999V27.2961Z"
          fill="white"/>
    <path d="M57.8371 28.8423L51.1914 13.8533L57.7216 10.8372C58.6157 10.4265 59.5246 10.3999 60.4559 10.7574C61.3872 11.1187 62.054 11.75 62.4526 12.6552L66.148 20.9922C66.5466 21.8936 66.5726 22.8216 66.2262 23.7724C65.8798 24.7271 65.2577 25.4079 64.3673 25.8224L57.8371 28.8385V28.8423ZM60.3553 25.6665L61.9907 24.9096C62.4451 24.7005 62.7581 24.3582 62.9294 23.8827C63.1008 23.4073 63.0896 22.9471 62.8922 22.4983L59.1968 14.1614C58.9956 13.7088 58.6604 13.3931 58.1947 13.2181C57.7254 13.0432 57.2709 13.0584 56.8276 13.2638L55.1922 14.0206L60.3553 25.6703V25.6665Z"
          fill="white"/>
    <path d="M72.0078 22.7159L68.4577 10.4387C68.1821 9.48023 68.2789 8.55601 68.752 7.66603C69.2251 6.77604 69.9329 6.19033 70.8717 5.90507L74.3174 4.86676C75.2562 4.58531 76.1614 4.6842 77.0368 5.17103C77.9085 5.65786 78.4859 6.38049 78.7616 7.33133L82.3117 19.6086L78.8808 20.6431L76.8505 13.6259L73.4048 14.6642L75.435 21.6814L72.0041 22.7159H72.0078ZM72.9019 12.9185L76.3476 11.8801L75.3307 8.36204C75.1929 7.88662 74.906 7.52911 74.4627 7.28569C74.0231 7.04608 73.5687 6.99664 73.103 7.13736C72.6299 7.27808 72.276 7.57475 72.0339 8.01593C71.7955 8.46093 71.7433 8.92113 71.8812 9.39655L72.8981 12.9147L72.9019 12.9185Z"
          fill="white"/>
    <path d="M93.2036 0.890625L95.1667 13.5368C95.353 14.7348 95.1965 15.6819 94.6974 16.3817C94.1982 17.0815 93.3637 17.5265 92.194 17.7167L88.6477 18.291C87.4742 18.4811 86.5467 18.3214 85.8612 17.8117C85.1758 17.3059 84.74 16.4501 84.5537 15.2559L83.9912 11.6351L87.5227 11.0646L88.0852 14.6854C88.1634 15.176 88.4018 15.5716 88.8079 15.8644C89.2139 16.1611 89.6572 16.2676 90.1377 16.1915C90.6257 16.1116 91.0132 15.8682 91.3074 15.4613C91.6017 15.0505 91.7098 14.6017 91.6315 14.1111L89.6684 1.46493L93.1998 0.894429L93.2036 0.890625Z"
          fill="white"/>
    <path d="M100.166 16.4533L100.192 0H101.008L108.652 7.81209L116.311 0.0266234H118.107L118.081 16.4837L114.49 16.4761L114.504 6.41626L108.209 12.8249L101.984 6.39724L101.969 16.4571H100.174L100.166 16.4533Z"
          fill="white"/>
    <path d="M125.937 17.818L127.136 10.6031C124.831 9.91845 123.858 8.51502 124.208 6.39274L125.106 0.984375L128.63 1.59672L127.732 7.00508C127.65 7.49572 127.755 7.94832 128.042 8.36668C128.328 8.78505 128.716 9.03607 129.204 9.11975C129.684 9.20342 130.128 9.09693 130.537 8.80027C130.947 8.50361 131.193 8.10806 131.275 7.62123L132.173 2.21286L135.697 2.8252L134.799 8.23357C134.445 10.3558 133.071 11.3523 130.675 11.223L129.476 18.438L125.933 17.8256L125.937 17.818Z"
          fill="white"/>
    <path d="M153.309 8.07768L156.662 9.39364C157.575 9.75115 158.234 10.3977 158.636 11.3257C159.039 12.2538 159.065 13.1818 158.714 14.1098L155.496 22.6521C155.149 23.5763 154.52 24.2457 153.611 24.6603C152.702 25.0787 151.789 25.1053 150.877 24.7478L147.524 23.4318C146.611 23.0743 145.952 22.4315 145.55 21.5035C145.147 20.5755 145.121 19.6475 145.471 18.7157L148.69 10.1733C149.04 9.2415 149.67 8.56831 150.579 8.15755C151.488 7.74679 152.397 7.72016 153.309 8.07768ZM152.024 11.4855L148.806 20.0278C148.634 20.488 148.645 20.9482 148.846 21.4122C149.048 21.8762 149.379 22.1995 149.845 22.3821C150.31 22.5647 150.769 22.5532 151.223 22.3441C151.678 22.1349 151.991 21.804 152.162 21.3438L155.38 12.8014C155.556 12.3374 155.541 11.8734 155.332 11.4094C155.127 10.9454 154.796 10.6259 154.341 10.4472C153.883 10.2684 153.425 10.2798 152.97 10.4814C152.516 10.6868 152.199 11.0177 152.028 11.4817L152.024 11.4855Z"
          fill="white"/>
    <path d="M164.474 31.3507L171.216 20.5568C171.741 19.7162 172.49 19.1837 173.462 18.9631C174.431 18.7426 175.329 18.9023 176.156 19.4424L179.184 21.4163C180.011 21.9526 180.529 22.7209 180.741 23.7135C180.954 24.7062 180.797 25.6228 180.276 26.4596L173.533 37.2535L170.52 35.2909L174.375 29.1219L171.347 27.148L167.491 33.317L164.477 31.3545L164.474 31.3507ZM172.296 25.6152L175.325 27.5892L177.258 24.497C177.519 24.0787 177.594 23.6223 177.486 23.124C177.374 22.6296 177.113 22.2454 176.703 21.9792C176.286 21.7092 175.839 21.6293 175.351 21.7358C174.867 21.8423 174.491 22.1047 174.23 22.5269L172.296 25.619V25.6152Z"
          fill="white"/>
    <path d="M187.101 36.6752L191.191 40.2275L187.711 44.4036C186.944 45.3278 186.072 45.769 185.104 45.7272C184.135 45.6891 183.323 45.3849 182.671 44.8182L179.933 42.4411C179.188 41.7945 178.775 40.9654 178.697 39.9537C178.618 38.942 178.894 38.0558 179.527 37.2951L185.335 30.3236C185.957 29.5743 186.765 29.1521 187.749 29.0571C188.736 28.962 189.611 29.2434 190.371 29.909L193.109 32.2861C194.823 33.7732 194.957 35.4885 193.515 37.432L192.148 36.2454C192.811 35.2299 192.744 34.3779 191.947 33.6857L190.58 32.4991C190.204 32.172 189.772 32.0313 189.276 32.0693C188.781 32.1073 188.375 32.3165 188.062 32.6969L182.254 39.6684C181.934 40.0526 181.796 40.4937 181.841 40.9996C181.885 41.5016 182.094 41.9162 182.47 42.2433C183.375 42.9545 184.217 42.8899 184.992 42.0493L187.32 39.2576L185.953 38.071L187.108 36.6866L187.101 36.6752Z"
          fill="white"/>
    <path d="M190.021 51.9325L201.863 40.7734L204.296 43.4624L192.454 54.6215L190.025 51.9325H190.021Z" fill="white"/>
    <path d="M196.749 59.7649L209.764 50.0625L211.873 53.0101L200.31 61.6285L203.476 66.0594L202.027 67.1396L196.752 59.7611L196.749 59.7649Z"
          fill="white"/>
    <path d="M204.568 71.2603L218.653 63.2656L223 71.2489L221.432 72.1389L218.82 67.3466L214.127 70.0128L215.874 73.219L214.32 74.1014L212.573 70.8952L207.88 73.5613L210.491 78.3535L208.923 79.2435L204.575 71.2603H204.568Z"
          fill="white"/>
    <path d="M95.5633 107.666C99.1476 107.431 102.746 106.564 105.821 104.705C108.896 102.846 111.413 99.9274 112.354 96.4608C113.298 92.9942 112.504 88.9999 109.98 86.4426C107.455 83.8873 102.117 83.5199 99.5231 84.4759C100.008 83.8082 101.303 82.7731 102.003 82.0119C105.559 83.4652 109.631 83.5707 113.205 82.2616C116.779 80.9525 119.959 78.0704 121.666 74.6668C121.575 74.6059 121.315 74.543 121.078 74.4009C120.885 74.7175 120.617 75.1864 120.404 75.5375C116.574 77.4737 111.906 77.5123 108.058 75.369C107.916 73.7758 107.851 72.1988 107.786 70.6197C104.956 70.3823 102.249 68.7342 100.751 66.2987C99.2531 63.8631 99.0035 60.703 100.099 58.0625C97.3554 59.4913 95.3339 62.1664 94.4206 65.3955C84.1751 70.9039 76.9355 81.5898 77.0004 93.3514C77.311 100.895 80.7694 109.044 86.3813 114.094C95.3441 122.156 107.223 122.602 107.223 122.602C107.223 122.602 119.277 123.136 127.483 118.088C133.387 114.457 139.417 109.276 141.725 101.504C143.612 94.7457 143.217 91.2873 142.555 87.3153C142.029 84.1694 140.521 81.3158 138.788 79.5825C134.846 75.641 128.725 74.6424 125.1 76.1058C122.07 77.3276 118.713 81.8313 117.781 87.0515C116.826 92.4137 117.524 97.9464 111.932 104.648C108.161 109.168 101.171 109.954 95.5633 107.67V107.666Z"
          fill="white" stroke="white" stroke-width="0.301246" stroke-miterlimit="10"/>
    <path d="M125.762 77.0057C128.53 75.9645 130.85 76.7175 131.632 76.8575C132.699 77.0483 134.936 77.8196 136.602 79.153C138.323 80.5291 140.014 82.2888 141.12 85.7594C143.598 93.5268 142.307 105.948 132.031 113.776C123.164 120.945 107.152 123.671 94.3558 117.383C89.5111 114.785 83.477 110.18 80.7452 102.954C78.8089 97.8316 77.8124 92.2684 78.8901 86.9001C80.9826 78.2742 87.039 70.1639 94.9484 66.129C95.6202 63.3322 96.9679 61.4589 98.8108 59.6484C97.8426 62.2463 98.9934 66.1493 100.954 68.1099C102.068 69.2242 104.301 71.1421 106.958 71.3289C107.008 72.6522 107.059 74.286 107.11 75.6093C107.475 76.0295 107.942 76.4394 109.976 77.2452C112.955 78.2965 117.079 77.6247 119.75 76.6607C117.398 79.013 115.238 80.8133 111.999 81.7286C109.428 82.37 105.439 82.1914 102.884 81.2476C100.329 80.3038 98.1958 78.4 96.6695 76.1451C96.3448 76.3481 96.0972 76.5044 95.7136 76.6749C96.3732 77.9048 98.898 80.2308 100.999 81.5094C100.142 82.3659 98.9508 83.8759 97.6153 84.9821C98.0009 85.5524 97.9116 85.4327 98.0354 85.6153C99.787 84.8867 105.036 84.5538 107.932 86.6728C111.053 88.9561 112.588 91.7854 111.293 96.4616C110.611 98.9215 107.761 103.005 104.571 104.647C101.38 106.289 97.5768 106.888 94.0371 106.888C94.0371 107.251 93.9985 107.44 93.9985 107.762C99.4278 110.527 107.01 110.277 111.77 106.455C117.091 102.183 118.029 93.8637 118.303 90.3443C118.541 87.306 119.48 84.5538 120.359 82.7637C121.275 80.9026 123.331 77.9211 125.762 77.0077V77.0057Z"
          fill="white"/>
    <path d="M119.931 73.6875L118.721 75.8267L118.644 76.2144L118.648 76.2387L119.994 75.78L120.791 74.341L119.931 73.6875Z"
          fill="white"/>
    <path d="M113.872 54.3188C113.807 54.0489 113.872 51.5829 111.855 48.7496C110.288 46.7829 109.356 46.3729 109.298 46.9757C109.273 47.2131 109.271 47.0203 108.981 49.9795C108.9 50.8035 108.733 52.0659 108.697 52.8088C108.062 52.8981 107.692 52.8636 107.047 52.894C106.907 49.9775 107.043 46.6266 106.905 43.7344C105.027 44.7614 103.087 46.314 101.95 49.3767C101.171 52.5246 101.597 53.9799 102.348 56.5027C100.986 59.4233 100.755 61.9522 102.6 65.1123C104.828 68.449 108.102 69.6018 110.325 69.6018C116.314 69.6018 118.24 67.1683 120.193 65.3579C121.784 60.911 117.954 56.3058 113.872 54.3188Z"
          fill="white"/>
    <path d="M117.773 79.3318C117.82 80.4663 118.48 81.5562 119.464 82.0372L119.963 81.1117C119.074 80.6997 118.437 79.7945 118.348 78.8203C118.151 79.003 117.952 79.1836 117.775 79.3318H117.773Z"
          fill="white"/>
    <path d="M106.093 45.1114L106.225 54.0356C110.284 53.2177 113.864 54.9916 114.92 55.8379C116.718 57.2789 120.45 61.6386 119.208 64.3258C117.857 67.2545 115.332 68.7605 110.686 68.7605C107.461 68.7605 104.167 66.5786 102.732 63.6905C101.297 60.8024 102.135 57.6219 102.913 56.4407C103.162 56.0612 99.7443 50.0677 106.091 45.1094L106.093 45.1114Z"
          fill="white"/>
    <path d="M118.961 65.1736C118.622 65.0803 118.325 64.8631 118.068 64.6236C117.81 64.3841 117.457 63.9924 117.658 63.7022C117.859 63.4119 118.076 63.5012 118.33 63.757C118.626 64.0533 119.05 64.3537 119.468 64.3009C119.886 64.2481 120.193 63.8869 120.152 63.4688C120.349 64.7839 119.809 66.3833 118.961 65.1716V65.1736Z"
          fill="white"/>
    <path d="M118.169 63.3987C118.37 63.7945 118.745 64.1415 119.143 64.2795C119.815 64.5089 120.097 63.8614 120.097 63.3236C120.097 60.5796 116.673 56.0352 112.718 54.7891"
          fill="white"/>
    <path d="M112.121 62.2786C113.345 62.2786 114.337 61.2736 114.337 60.0338C114.337 58.7941 113.345 57.7891 112.121 57.7891C110.897 57.7891 109.905 58.7941 109.905 60.0338C109.905 61.2736 110.897 62.2786 112.121 62.2786Z"
          fill="white"/>
    <path d="M113.357 58.172C111.936 57.3683 110.069 57.5936 108.725 58.5211C108.569 58.6287 108.512 58.8601 108.601 59.0285C108.691 59.197 108.914 59.2782 109.091 59.2092C109.744 58.9534 110.475 58.8986 111.161 59.0549"
          fill="white"/>
    <path d="M112.157 58.7C112.581 58.495 113.152 58.6858 113.367 59.1039C113.582 59.522 113.408 60.0964 112.996 60.3237C112.584 60.551 112.003 60.3927 111.766 59.9868C111.528 59.5809 111.67 58.9984 112.064 58.7426L112.157 58.7Z"
          fill="white"/>
    <path d="M105.866 54.0669C104.867 54.3612 104.102 54.9559 103.438 55.7576C102.373 52.5589 103.233 48.8021 105.579 46.3828"
          fill="white"/>
    <path d="M127.538 69.3652C126.907 70.8692 125.754 72.7567 124.834 74.0577C124.183 74.9771 122.711 74.9345 121.597 74.76C120.274 74.5529 119.119 73.2154 119.048 72.091C118.977 70.9666 119.781 69.6392 120.396 68.6955C121.01 67.7517 122.34 65.3973 123.14 64.6058C123.913 63.8406 125.991 64.8635 126.716 65.6754C127.44 66.4872 128.051 67.9283 127.536 69.3673H127.538V69.3652Z"
          fill="white"/>
    <path d="M127.538 69.3652C127.172 70.7515 125.604 72.7121 124.834 74.0577C124.276 75.036 122.711 74.9345 121.597 74.76C120.274 74.5529 119.119 73.2154 119.048 72.091C118.977 70.9666 119.781 69.6392 120.396 68.6955C121.01 67.7517 122.34 65.3973 123.14 64.6058C123.913 63.8406 125.991 64.8635 126.716 65.6754C127.44 66.4872 127.917 67.8694 127.536 69.3673H127.538V69.3652Z"
          fill="white"/>
    <path d="M123.495 65.3653C122.943 65.9173 121.504 68.3529 120.42 70.1207C119.568 71.5109 119.732 72.8058 120.791 73.6299C122.105 74.6508 123.901 74.2327 124.309 73.8247C125.058 73.0758 125.918 71.2451 126.495 70.3561C127.14 69.3616 127.485 68.2291 126.657 66.7008C126.117 65.7062 124.222 64.6387 123.495 65.3632V65.3653Z"
          fill="white"/>
    <path d="M127.142 68.3116C127.112 68.0458 127.085 67.8022 126.88 67.5566C126.474 67.104 125.736 66.9092 125.135 67.0249C124.733 67.102 123.97 67.5363 123.57 68.1716C124.538 68.813 125.669 69.5497 126.635 70.1667C126.99 69.6289 127.142 68.953 127.14 68.3116H127.142Z"
          fill="white"/>
    <path d="M121.317 71.4844C121.007 72.3226 121.088 73.5728 121.861 74.0234C122.63 74.472 123.824 74.2487 124.563 73.6906C123.471 72.966 122.468 72.2495 121.317 71.4844Z"
          fill="white"/>
    <path d="M124.887 73.8304C124.909 73.802 124.928 73.7715 124.95 73.7431C124.97 73.7188 124.987 73.6924 124.999 73.6619C125.007 73.6416 125.015 73.6315 125.029 73.6153C125.029 73.6153 125.039 73.6051 125.043 73.6031C125.045 73.599 125.054 73.5848 125.054 73.5828C125.07 73.5503 125.084 73.5178 125.098 73.4833C125.108 73.4569 125.121 73.4306 125.135 73.4062L121.632 71.0234L121.319 71.4842L124.847 73.8832C124.861 73.8649 124.875 73.8466 124.887 73.8284V73.8304Z"
          fill="white"/>
    <path d="M126.752 70.8145C126.813 70.7212 126.88 70.6299 126.945 70.5405C126.972 70.506 126.998 70.4695 127.022 70.435L123.613 68.1172L123.294 68.586L126.7 70.9018C126.718 70.8734 126.736 70.843 126.754 70.8145H126.752Z"
          fill="white"/>
    <path d="M126.752 70.8145C126.813 70.7212 126.88 70.6299 126.945 70.5405C126.972 70.506 126.998 70.4695 127.022 70.435L123.613 68.1172L123.294 68.586L126.7 70.9018C126.718 70.8734 126.736 70.843 126.754 70.8145H126.752Z"
          fill="white"/>
    <path d="M126.353 71.4411L122.935 69.1172L122.616 69.586L126.071 71.9343C126.148 71.7638 126.247 71.5953 126.353 71.4391V71.4411Z"
          fill="white"/>
    <path d="M126.353 71.4411L122.935 69.1172L122.616 69.586L126.071 71.9343C126.148 71.7638 126.247 71.5953 126.353 71.4391V71.4411Z"
          fill="white"/>
    <path d="M125.673 72.5319C125.693 72.5035 125.717 72.4751 125.74 72.4467L122.255 70.0781L121.936 70.547L125.441 72.9297C125.51 72.7917 125.583 72.6557 125.675 72.5319H125.673Z"
          fill="white"/>
    <path d="M125.673 72.5319C125.693 72.5035 125.717 72.4751 125.74 72.4467L122.255 70.0781L121.936 70.547L125.441 72.9297C125.51 72.7917 125.583 72.6557 125.675 72.5319H125.673Z"
          fill="white"/>
    <path d="M125.673 72.5319C125.693 72.5035 125.717 72.4751 125.74 72.4467L122.255 70.0781L121.936 70.547L125.441 72.9297C125.51 72.7917 125.583 72.6557 125.675 72.5319H125.673Z"
          fill="white"/>
    <path d="M125.673 72.5319C125.693 72.5035 125.717 72.4751 125.74 72.4467L122.255 70.0781L121.936 70.547L125.441 72.9297C125.51 72.7917 125.583 72.6557 125.675 72.5319H125.673Z"
          fill="white"/>
    <path d="M126.752 70.8145C126.813 70.7212 126.88 70.6299 126.945 70.5405C126.972 70.506 126.998 70.4695 127.022 70.435L123.613 68.1172L123.294 68.586L126.7 70.9018C126.718 70.8734 126.736 70.843 126.754 70.8145H126.752Z"
          fill="white"/>
    <path d="M126.752 70.8145C126.813 70.7212 126.88 70.6299 126.945 70.5405C126.972 70.506 126.998 70.4695 127.022 70.435L123.613 68.1172L123.294 68.586L126.7 70.9018C126.718 70.8734 126.736 70.843 126.754 70.8145H126.752Z"
          fill="white"/>
    <path d="M126.353 71.4411L122.935 69.1172L122.616 69.586L126.071 71.9343C126.148 71.7638 126.247 71.5953 126.353 71.4391V71.4411Z"
          fill="white"/>
    <path d="M126.353 71.4411L122.935 69.1172L122.616 69.586L126.071 71.9343C126.148 71.7638 126.247 71.5953 126.353 71.4391V71.4411Z"
          fill="white"/>
    <path d="M125.673 72.5319C125.693 72.5035 125.717 72.4751 125.74 72.4467L122.255 70.0781L121.936 70.547L125.441 72.9297C125.51 72.7917 125.583 72.6557 125.675 72.5319H125.673Z"
          fill="white"/>
    <path d="M125.673 72.5319C125.693 72.5035 125.717 72.4751 125.74 72.4467L122.255 70.0781L121.936 70.547L125.441 72.9297C125.51 72.7917 125.583 72.6557 125.675 72.5319H125.673Z"
          fill="white"/>
    <path d="M125.673 72.5319C125.693 72.5035 125.717 72.4751 125.74 72.4467L122.255 70.0781L121.936 70.547L125.441 72.9297C125.51 72.7917 125.583 72.6557 125.675 72.5319H125.673Z"
          fill="white"/>
    <path d="M125.673 72.5319C125.693 72.5035 125.717 72.4751 125.74 72.4467L122.255 70.0781L121.936 70.547L125.441 72.9297C125.51 72.7917 125.583 72.6557 125.675 72.5319H125.673Z"
          fill="white"/>
    <path d="M126.752 70.8145C126.813 70.7212 126.88 70.6299 126.945 70.5405C126.972 70.506 126.998 70.4695 127.022 70.435L123.613 68.1172L123.294 68.586L126.7 70.9018C126.718 70.8734 126.736 70.843 126.754 70.8145H126.752Z"
          fill="white"/>
    <path d="M126.752 70.8145C126.813 70.7212 126.88 70.6299 126.945 70.5405C126.972 70.506 126.998 70.4695 127.022 70.435L123.613 68.1172L123.294 68.586L126.7 70.9018C126.718 70.8734 126.736 70.843 126.754 70.8145H126.752Z"
          fill="white"/>
    <path d="M126.353 71.4411L122.935 69.1172L122.616 69.586L126.071 71.9343C126.148 71.7638 126.247 71.5953 126.353 71.4391V71.4411Z"
          fill="white"/>
    <path d="M126.353 71.4411L122.935 69.1172L122.616 69.586L126.071 71.9343C126.148 71.7638 126.247 71.5953 126.353 71.4391V71.4411Z"
          fill="white"/>
    <path d="M125.673 72.5319C125.693 72.5035 125.717 72.4751 125.74 72.4467L122.255 70.0781L121.936 70.547L125.441 72.9297C125.51 72.7917 125.583 72.6557 125.675 72.5319H125.673Z"
          fill="white"/>
    <path d="M125.673 72.5319C125.693 72.5035 125.717 72.4751 125.74 72.4467L122.255 70.0781L121.936 70.547L125.441 72.9297C125.51 72.7917 125.583 72.6557 125.675 72.5319H125.673Z"
          fill="white"/>
    <path d="M125.673 72.5319C125.693 72.5035 125.717 72.4751 125.74 72.4467L122.255 70.0781L121.936 70.547L125.441 72.9297C125.51 72.7917 125.583 72.6557 125.675 72.5319H125.673Z"
          fill="white"/>
    <path d="M125.673 72.5319C125.693 72.5035 125.717 72.4751 125.74 72.4467L122.255 70.0781L121.936 70.547L125.441 72.9297C125.51 72.7917 125.583 72.6557 125.675 72.5319H125.673Z"
          fill="white"/>
    <path d="M126.752 70.8145C126.813 70.7212 126.88 70.6299 126.945 70.5405C126.972 70.506 126.998 70.4695 127.022 70.435L123.613 68.1172L123.294 68.586L126.7 70.9018C126.718 70.8734 126.736 70.843 126.754 70.8145H126.752Z"
          fill="white"/>
    <path d="M126.752 70.8145C126.813 70.7212 126.88 70.6299 126.945 70.5405C126.972 70.506 126.998 70.4695 127.022 70.435L123.613 68.1172L123.294 68.586L126.7 70.9018C126.718 70.8734 126.736 70.843 126.754 70.8145H126.752Z"
          fill="white"/>
    <path d="M126.353 71.4411L122.935 69.1172L122.616 69.586L126.071 71.9343C126.148 71.7638 126.247 71.5953 126.353 71.4391V71.4411Z"
          fill="white"/>
    <path d="M126.353 71.4411L122.935 69.1172L122.616 69.586L126.071 71.9343C126.148 71.7638 126.247 71.5953 126.353 71.4391V71.4411Z"
          fill="white"/>
    <path d="M125.673 72.5319C125.693 72.5035 125.717 72.4751 125.74 72.4467L122.255 70.0781L121.936 70.547L125.441 72.9297C125.51 72.7917 125.583 72.6557 125.675 72.5319H125.673Z"
          fill="white"/>
    <path d="M125.673 72.5319C125.693 72.5035 125.717 72.4751 125.74 72.4467L122.255 70.0781L121.936 70.547L125.441 72.9297C125.51 72.7917 125.583 72.6557 125.675 72.5319H125.673Z"
          fill="white"/>
    <path d="M125.673 72.5319C125.693 72.5035 125.717 72.4751 125.74 72.4467L122.255 70.0781L121.936 70.547L125.441 72.9297C125.51 72.7917 125.583 72.6557 125.675 72.5319H125.673Z"
          fill="white"/>
    <path d="M125.673 72.5319C125.693 72.5035 125.717 72.4751 125.74 72.4467L122.255 70.0781L121.936 70.547L125.441 72.9297C125.51 72.7917 125.583 72.6557 125.675 72.5319H125.673Z"
          fill="white"/>
    <path d="M126.752 70.8145C126.813 70.7212 126.88 70.6299 126.945 70.5405C126.972 70.506 126.998 70.4695 127.022 70.435L123.613 68.1172L123.294 68.586L126.7 70.9018C126.718 70.8734 126.736 70.843 126.754 70.8145H126.752Z"
          fill="white"/>
    <path d="M126.752 70.8145C126.813 70.7212 126.88 70.6299 126.945 70.5405C126.972 70.506 126.998 70.4695 127.022 70.435L123.613 68.1172L123.294 68.586L126.7 70.9018C126.718 70.8734 126.736 70.843 126.754 70.8145H126.752Z"
          fill="white"/>
    <path d="M126.353 71.4411L122.935 69.1172L122.616 69.586L126.071 71.9343C126.148 71.7638 126.247 71.5953 126.353 71.4391V71.4411Z"
          fill="white"/>
    <path d="M126.353 71.4411L122.935 69.1172L122.616 69.586L126.071 71.9343C126.148 71.7638 126.247 71.5953 126.353 71.4391V71.4411Z"
          fill="white"/>
    <path d="M125.673 72.5319C125.693 72.5035 125.717 72.4751 125.74 72.4467L122.255 70.0781L121.936 70.547L125.441 72.9297C125.51 72.7917 125.583 72.6557 125.675 72.5319H125.673Z"
          fill="white"/>
    <path d="M125.673 72.5319C125.693 72.5035 125.717 72.4751 125.74 72.4467L122.255 70.0781L121.936 70.547L125.441 72.9297C125.51 72.7917 125.583 72.6557 125.675 72.5319H125.673Z"
          fill="white"/>
    <path d="M125.673 72.5319C125.693 72.5035 125.717 72.4751 125.74 72.4467L122.255 70.0781L121.936 70.547L125.441 72.9297C125.51 72.7917 125.583 72.6557 125.675 72.5319H125.673Z"
          fill="white"/>
    <path d="M125.673 72.5319C125.693 72.5035 125.717 72.4751 125.74 72.4467L122.255 70.0781L121.936 70.547L125.441 72.9297C125.51 72.7917 125.583 72.6557 125.675 72.5319H125.673Z"
          fill="white"/>
    <path d="M126.752 70.8145C126.813 70.7212 126.88 70.6299 126.945 70.5405C126.972 70.506 126.998 70.4695 127.022 70.435L123.613 68.1172L123.294 68.586L126.7 70.9018C126.718 70.8734 126.736 70.843 126.754 70.8145H126.752Z"
          fill="white"/>
    <path d="M126.752 70.8145C126.813 70.7212 126.88 70.6299 126.945 70.5405C126.972 70.506 126.998 70.4695 127.022 70.435L123.613 68.1172L123.294 68.586L126.7 70.9018C126.718 70.8734 126.736 70.843 126.754 70.8145H126.752Z"
          fill="white"/>
    <path d="M126.353 71.4411L122.935 69.1172L122.616 69.586L126.071 71.9343C126.148 71.7638 126.247 71.5953 126.353 71.4391V71.4411Z"
          fill="white"/>
    <path d="M126.353 71.4411L122.935 69.1172L122.616 69.586L126.071 71.9343C126.148 71.7638 126.247 71.5953 126.353 71.4391V71.4411Z"
          fill="white"/>
    <path d="M125.673 72.5319C125.693 72.5035 125.717 72.4751 125.74 72.4467L122.255 70.0781L121.936 70.547L125.441 72.9297C125.51 72.7917 125.583 72.6557 125.675 72.5319H125.673Z"
          fill="white"/>
    <path d="M125.673 72.5319C125.693 72.5035 125.717 72.4751 125.74 72.4467L122.255 70.0781L121.936 70.547L125.441 72.9297C125.51 72.7917 125.583 72.6557 125.675 72.5319H125.673Z"
          fill="white"/>
    <path d="M125.673 72.5319C125.693 72.5035 125.717 72.4751 125.74 72.4467L122.255 70.0781L121.936 70.547L125.441 72.9297C125.51 72.7917 125.583 72.6557 125.675 72.5319H125.673Z"
          fill="white"/>
    <path d="M125.673 72.5319C125.693 72.5035 125.717 72.4751 125.74 72.4467L122.255 70.0781L121.936 70.547L125.441 72.9297C125.51 72.7917 125.583 72.6557 125.675 72.5319H125.673Z"
          fill="white"/>
    <path d="M126.752 70.8145C126.813 70.7212 126.88 70.6299 126.945 70.5405C126.972 70.506 126.998 70.4695 127.022 70.435L123.613 68.1172L123.294 68.586L126.7 70.9018C126.718 70.8734 126.736 70.843 126.754 70.8145H126.752Z"
          fill="white"/>
    <path d="M126.752 70.8145C126.813 70.7212 126.88 70.6299 126.945 70.5405C126.972 70.506 126.998 70.4695 127.022 70.435L123.613 68.1172L123.294 68.586L126.7 70.9018C126.718 70.8734 126.736 70.843 126.754 70.8145H126.752Z"
          fill="white"/>
    <path d="M126.353 71.4411L122.935 69.1172L122.616 69.586L126.071 71.9343C126.148 71.7638 126.247 71.5953 126.353 71.4391V71.4411Z"
          fill="white"/>
    <path d="M126.353 71.4411L122.935 69.1172L122.616 69.586L126.071 71.9343C126.148 71.7638 126.247 71.5953 126.353 71.4391V71.4411Z"
          fill="white"/>
    <path d="M125.673 72.5319C125.693 72.5035 125.717 72.4751 125.74 72.4467L122.255 70.0781L121.936 70.547L125.441 72.9297C125.51 72.7917 125.583 72.6557 125.675 72.5319H125.673Z"
          fill="white"/>
    <path d="M125.673 72.5319C125.693 72.5035 125.717 72.4751 125.74 72.4467L122.255 70.0781L121.936 70.547L125.441 72.9297C125.51 72.7917 125.583 72.6557 125.675 72.5319H125.673Z"
          fill="white"/>
    <path d="M125.673 72.5319C125.693 72.5035 125.717 72.4751 125.74 72.4467L122.255 70.0781L121.936 70.547L125.441 72.9297C125.51 72.7917 125.583 72.6557 125.675 72.5319H125.673Z"
          fill="white"/>
    <path d="M125.673 72.5319C125.693 72.5035 125.717 72.4751 125.74 72.4467L122.255 70.0781L121.936 70.547L125.441 72.9297C125.51 72.7917 125.583 72.6557 125.675 72.5319H125.673Z"
          fill="white"/>
    <path d="M126.752 70.8145C126.813 70.7212 126.88 70.6299 126.945 70.5405C126.972 70.506 126.998 70.4695 127.022 70.435L123.613 68.1172L123.294 68.586L126.7 70.9018C126.718 70.8734 126.736 70.843 126.754 70.8145H126.752Z"
          fill="white"/>
    <path d="M126.752 70.8145C126.813 70.7212 126.88 70.6299 126.945 70.5405C126.972 70.506 126.998 70.4695 127.022 70.435L123.613 68.1172L123.294 68.586L126.7 70.9018C126.718 70.8734 126.736 70.843 126.754 70.8145H126.752Z"
          fill="white"/>
    <path d="M126.353 71.4411L122.935 69.1172L122.616 69.586L126.071 71.9343C126.148 71.7638 126.247 71.5953 126.353 71.4391V71.4411Z"
          fill="white"/>
    <path d="M126.353 71.4411L122.935 69.1172L122.616 69.586L126.071 71.9343C126.148 71.7638 126.247 71.5953 126.353 71.4391V71.4411Z"
          fill="white"/>
    <path d="M125.673 72.5319C125.693 72.5035 125.717 72.4751 125.74 72.4467L122.255 70.0781L121.936 70.547L125.441 72.9297C125.51 72.7917 125.583 72.6557 125.675 72.5319H125.673Z"
          fill="white"/>
    <path d="M125.673 72.5319C125.693 72.5035 125.717 72.4751 125.74 72.4467L122.255 70.0781L121.936 70.547L125.441 72.9297C125.51 72.7917 125.583 72.6557 125.675 72.5319H125.673Z"
          fill="white"/>
    <path d="M125.673 72.5319C125.693 72.5035 125.717 72.4751 125.74 72.4467L122.255 70.0781L121.936 70.547L125.441 72.9297C125.51 72.7917 125.583 72.6557 125.675 72.5319H125.673Z"
          fill="white"/>
    <path d="M125.673 72.5319C125.693 72.5035 125.717 72.4751 125.74 72.4467L122.255 70.0781L121.936 70.547L125.441 72.9297C125.51 72.7917 125.583 72.6557 125.675 72.5319H125.673Z"
          fill="white"/>
    <path d="M126.752 70.8145C126.813 70.7212 126.88 70.6299 126.945 70.5405C126.972 70.506 126.998 70.4695 127.022 70.435L123.613 68.1172L123.294 68.586L126.7 70.9018C126.718 70.8734 126.736 70.843 126.754 70.8145H126.752Z"
          fill="white"/>
    <path d="M126.752 70.8145C126.813 70.7212 126.88 70.6299 126.945 70.5405C126.972 70.506 126.998 70.4695 127.022 70.435L123.613 68.1172L123.294 68.586L126.7 70.9018C126.718 70.8734 126.736 70.843 126.754 70.8145H126.752Z"
          fill="white"/>
    <path d="M126.353 71.4411L122.935 69.1172L122.616 69.586L126.071 71.9343C126.148 71.7638 126.247 71.5953 126.353 71.4391V71.4411Z"
          fill="white"/>
    <path d="M126.353 71.4411L122.935 69.1172L122.616 69.586L126.071 71.9343C126.148 71.7638 126.247 71.5953 126.353 71.4391V71.4411Z"
          fill="white"/>
    <path d="M125.673 72.5319C125.693 72.5035 125.717 72.4751 125.74 72.4467L122.255 70.0781L121.936 70.547L125.441 72.9297C125.51 72.7917 125.583 72.6557 125.675 72.5319H125.673Z"
          fill="white"/>
    <path d="M125.673 72.5319C125.693 72.5035 125.717 72.4751 125.74 72.4467L122.255 70.0781L121.936 70.547L125.441 72.9297C125.51 72.7917 125.583 72.6557 125.675 72.5319H125.673Z"
          fill="white"/>
    <path d="M125.673 72.5319C125.693 72.5035 125.717 72.4751 125.74 72.4467L122.255 70.0781L121.936 70.547L125.441 72.9297C125.51 72.7917 125.583 72.6557 125.675 72.5319H125.673Z"
          fill="white"/>
    <path d="M125.673 72.5319C125.693 72.5035 125.717 72.4751 125.74 72.4467L122.255 70.0781L121.936 70.547L125.441 72.9297C125.51 72.7917 125.583 72.6557 125.675 72.5319H125.673Z"
          fill="white"/>
    <path d="M126.752 70.8145C126.813 70.7212 126.88 70.6299 126.945 70.5405C126.972 70.506 126.998 70.4695 127.022 70.435L123.613 68.1172L123.294 68.586L126.7 70.9018C126.718 70.8734 126.736 70.843 126.754 70.8145H126.752Z"
          fill="white"/>
    <path d="M126.752 70.8145C126.813 70.7212 126.88 70.6299 126.945 70.5405C126.972 70.506 126.998 70.4695 127.022 70.435L123.613 68.1172L123.294 68.586L126.7 70.9018C126.718 70.8734 126.736 70.843 126.754 70.8145H126.752Z"
          fill="white"/>
    <path d="M126.353 71.4411L122.935 69.1172L122.616 69.586L126.071 71.9343C126.148 71.7638 126.247 71.5953 126.353 71.4391V71.4411Z"
          fill="white"/>
    <path d="M126.353 71.4411L122.935 69.1172L122.616 69.586L126.071 71.9343C126.148 71.7638 126.247 71.5953 126.353 71.4391V71.4411Z"
          fill="white"/>
    <path d="M125.673 72.5319C125.693 72.5035 125.717 72.4751 125.74 72.4467L122.255 70.0781L121.936 70.547L125.441 72.9297C125.51 72.7917 125.583 72.6557 125.675 72.5319H125.673Z"
          fill="white"/>
    <path d="M125.673 72.5319C125.693 72.5035 125.717 72.4751 125.74 72.4467L122.255 70.0781L121.936 70.547L125.441 72.9297C125.51 72.7917 125.583 72.6557 125.675 72.5319H125.673Z"
          fill="white"/>
    <path d="M125.673 72.5319C125.693 72.5035 125.717 72.4751 125.74 72.4467L122.255 70.0781L121.936 70.547L125.441 72.9297C125.51 72.7917 125.583 72.6557 125.675 72.5319H125.673Z"
          fill="white"/>
    <path d="M125.673 72.5319C125.693 72.5035 125.717 72.4751 125.74 72.4467L122.255 70.0781L121.936 70.547L125.441 72.9297C125.51 72.7917 125.583 72.6557 125.675 72.5319H125.673Z"
          fill="white"/>
    <path d="M126.752 70.8145C126.813 70.7212 126.88 70.6299 126.945 70.5405C126.972 70.506 126.998 70.4695 127.022 70.435L123.613 68.1172L123.294 68.586L126.7 70.9018C126.718 70.8734 126.736 70.843 126.754 70.8145H126.752Z"
          fill="white"/>
    <path d="M126.752 70.8145C126.813 70.7212 126.88 70.6299 126.945 70.5405C126.972 70.506 126.998 70.4695 127.022 70.435L123.613 68.1172L123.294 68.586L126.7 70.9018C126.718 70.8734 126.736 70.843 126.754 70.8145H126.752Z"
          fill="white"/>
    <path d="M126.353 71.4411L122.935 69.1172L122.616 69.586L126.071 71.9343C126.148 71.7638 126.247 71.5953 126.353 71.4391V71.4411Z"
          fill="white"/>
    <path d="M126.353 71.4411L122.935 69.1172L122.616 69.586L126.071 71.9343C126.148 71.7638 126.247 71.5953 126.353 71.4391V71.4411Z"
          fill="white"/>
    <path d="M125.673 72.5319C125.693 72.5035 125.717 72.4751 125.74 72.4467L122.255 70.0781L121.936 70.547L125.441 72.9297C125.51 72.7917 125.583 72.6557 125.675 72.5319H125.673Z"
          fill="white"/>
    <path d="M125.673 72.5319C125.693 72.5035 125.717 72.4751 125.74 72.4467L122.255 70.0781L121.936 70.547L125.441 72.9297C125.51 72.7917 125.583 72.6557 125.675 72.5319H125.673Z"
          fill="white"/>
    <path d="M125.673 72.5319C125.693 72.5035 125.717 72.4751 125.74 72.4467L122.255 70.0781L121.936 70.547L125.441 72.9297C125.51 72.7917 125.583 72.6557 125.675 72.5319H125.673Z"
          fill="white"/>
    <path d="M125.673 72.5319C125.693 72.5035 125.717 72.4751 125.74 72.4467L122.255 70.0781L121.936 70.547L125.441 72.9297C125.51 72.7917 125.583 72.6557 125.675 72.5319H125.673Z"
          fill="white"/>
    <path d="M126.752 70.8145C126.813 70.7212 126.88 70.6299 126.945 70.5405C126.972 70.506 126.998 70.4695 127.022 70.435L123.613 68.1172L123.294 68.586L126.7 70.9018C126.718 70.8734 126.736 70.843 126.754 70.8145H126.752Z"
          fill="white"/>
    <path d="M126.752 70.8145C126.813 70.7212 126.88 70.6299 126.945 70.5405C126.972 70.506 126.998 70.4695 127.022 70.435L123.613 68.1172L123.294 68.586L126.7 70.9018C126.718 70.8734 126.736 70.843 126.754 70.8145H126.752Z"
          fill="white"/>
    <path d="M126.353 71.4411L122.935 69.1172L122.616 69.586L126.071 71.9343C126.148 71.7638 126.247 71.5953 126.353 71.4391V71.4411Z"
          fill="white"/>
    <path d="M126.353 71.4411L122.935 69.1172L122.616 69.586L126.071 71.9343C126.148 71.7638 126.247 71.5953 126.353 71.4391V71.4411Z"
          fill="white"/>
    <path d="M125.673 72.5319C125.693 72.5035 125.717 72.4751 125.74 72.4467L122.255 70.0781L121.936 70.547L125.441 72.9297C125.51 72.7917 125.583 72.6557 125.675 72.5319H125.673Z"
          fill="white"/>
    <path d="M125.673 72.5319C125.693 72.5035 125.717 72.4751 125.74 72.4467L122.255 70.0781L121.936 70.547L125.441 72.9297C125.51 72.7917 125.583 72.6557 125.675 72.5319H125.673Z"
          fill="white"/>
    <path d="M125.673 72.5319C125.693 72.5035 125.717 72.4751 125.74 72.4467L122.255 70.0781L121.936 70.547L125.441 72.9297C125.51 72.7917 125.583 72.6557 125.675 72.5319H125.673Z"
          fill="white"/>
    <path d="M125.673 72.5319C125.693 72.5035 125.717 72.4751 125.74 72.4467L122.255 70.0781L121.936 70.547L125.441 72.9297C125.51 72.7917 125.583 72.6557 125.675 72.5319H125.673Z"
          fill="white"/>
    <path d="M126.752 70.8145C126.813 70.7212 126.88 70.6299 126.945 70.5405C126.972 70.506 126.998 70.4695 127.022 70.435L123.613 68.1172L123.294 68.586L126.7 70.9018C126.718 70.8734 126.736 70.843 126.754 70.8145H126.752Z"
          fill="white"/>
    <path d="M126.752 70.8145C126.813 70.7212 126.88 70.6299 126.945 70.5405C126.972 70.506 126.998 70.4695 127.022 70.435L123.613 68.1172L123.294 68.586L126.7 70.9018C126.718 70.8734 126.736 70.843 126.754 70.8145H126.752Z"
          fill="white"/>
    <path d="M126.353 71.4411L122.935 69.1172L122.616 69.586L126.071 71.9343C126.148 71.7638 126.247 71.5953 126.353 71.4391V71.4411Z"
          fill="white"/>
    <path d="M126.353 71.4411L122.935 69.1172L122.616 69.586L126.071 71.9343C126.148 71.7638 126.247 71.5953 126.353 71.4391V71.4411Z"
          fill="white"/>
    <path d="M125.673 72.5319C125.693 72.5035 125.717 72.4751 125.74 72.4467L122.255 70.0781L121.936 70.547L125.441 72.9297C125.51 72.7917 125.583 72.6557 125.675 72.5319H125.673Z"
          fill="white"/>
    <path d="M125.673 72.5319C125.693 72.5035 125.717 72.4751 125.74 72.4467L122.255 70.0781L121.936 70.547L125.441 72.9297C125.51 72.7917 125.583 72.6557 125.675 72.5319H125.673Z"
          fill="white"/>
    <path d="M125.673 72.5319C125.693 72.5035 125.717 72.4751 125.74 72.4467L122.255 70.0781L121.936 70.547L125.441 72.9297C125.51 72.7917 125.583 72.6557 125.675 72.5319H125.673Z"
          fill="white"/>
    <path d="M125.673 72.5319C125.693 72.5035 125.717 72.4751 125.74 72.4467L122.255 70.0781L121.936 70.547L125.441 72.9297C125.51 72.7917 125.583 72.6557 125.675 72.5319H125.673Z"
          fill="white"/>
    <path d="M126.752 70.8145C126.813 70.7212 126.88 70.6299 126.945 70.5405C126.972 70.506 126.998 70.4695 127.022 70.435L123.613 68.1172L123.294 68.586L126.7 70.9018C126.718 70.8734 126.736 70.843 126.754 70.8145H126.752Z"
          fill="white"/>
    <path d="M126.752 70.8145C126.813 70.7212 126.88 70.6299 126.945 70.5405C126.972 70.506 126.998 70.4695 127.022 70.435L123.613 68.1172L123.294 68.586L126.7 70.9018C126.718 70.8734 126.736 70.843 126.754 70.8145H126.752Z"
          fill="white"/>
    <path d="M126.353 71.4411L122.935 69.1172L122.616 69.586L126.071 71.9343C126.148 71.7638 126.247 71.5953 126.353 71.4391V71.4411Z"
          fill="white"/>
    <path d="M126.353 71.4411L122.935 69.1172L122.616 69.586L126.071 71.9343C126.148 71.7638 126.247 71.5953 126.353 71.4391V71.4411Z"
          fill="white"/>
    <path d="M125.673 72.5319C125.693 72.5035 125.717 72.4751 125.74 72.4467L122.255 70.0781L121.936 70.547L125.441 72.9297C125.51 72.7917 125.583 72.6557 125.675 72.5319H125.673Z"
          fill="white"/>
    <path d="M125.673 72.5319C125.693 72.5035 125.717 72.4751 125.74 72.4467L122.255 70.0781L121.936 70.547L125.441 72.9297C125.51 72.7917 125.583 72.6557 125.675 72.5319H125.673Z"
          fill="white"/>
    <path d="M125.673 72.5319C125.693 72.5035 125.717 72.4751 125.74 72.4467L122.255 70.0781L121.936 70.547L125.441 72.9297C125.51 72.7917 125.583 72.6557 125.675 72.5319H125.673Z"
          fill="white"/>
    <path d="M125.673 72.5319C125.693 72.5035 125.717 72.4751 125.74 72.4467L122.255 70.0781L121.936 70.547L125.441 72.9297C125.51 72.7917 125.583 72.6557 125.675 72.5319H125.673Z"
          fill="white"/>
    <path d="M126.752 70.8145C126.813 70.7212 126.88 70.6299 126.945 70.5405C126.972 70.506 126.998 70.4695 127.022 70.435L123.613 68.1172L123.294 68.586L126.7 70.9018C126.718 70.8734 126.736 70.843 126.754 70.8145H126.752Z"
          fill="white"/>
    <path d="M126.752 70.8145C126.813 70.7212 126.88 70.6299 126.945 70.5405C126.972 70.506 126.998 70.4695 127.022 70.435L123.613 68.1172L123.294 68.586L126.7 70.9018C126.718 70.8734 126.736 70.843 126.754 70.8145H126.752Z"
          fill="white"/>
    <path d="M126.353 71.4411L122.935 69.1172L122.616 69.586L126.071 71.9343C126.148 71.7638 126.247 71.5953 126.353 71.4391V71.4411Z"
          fill="white"/>
    <path d="M126.353 71.4411L122.935 69.1172L122.616 69.586L126.071 71.9343C126.148 71.7638 126.247 71.5953 126.353 71.4391V71.4411Z"
          fill="white"/>
    <path d="M125.673 72.5319C125.693 72.5035 125.717 72.4751 125.74 72.4467L122.255 70.0781L121.936 70.547L125.441 72.9297C125.51 72.7917 125.583 72.6557 125.675 72.5319H125.673Z"
          fill="white"/>
    <path d="M125.673 72.5319C125.693 72.5035 125.717 72.4751 125.74 72.4467L122.255 70.0781L121.936 70.547L125.441 72.9297C125.51 72.7917 125.583 72.6557 125.675 72.5319H125.673Z"
          fill="white"/>
    <path d="M125.673 72.5319C125.693 72.5035 125.717 72.4751 125.74 72.4467L122.255 70.0781L121.936 70.547L125.441 72.9297C125.51 72.7917 125.583 72.6557 125.675 72.5319H125.673Z"
          fill="white"/>
    <path d="M125.673 72.5319C125.693 72.5035 125.717 72.4751 125.74 72.4467L122.255 70.0781L121.936 70.547L125.441 72.9297C125.51 72.7917 125.583 72.6557 125.675 72.5319H125.673Z"
          fill="white"/>
    <path d="M126.752 70.8145C126.813 70.7212 126.88 70.6299 126.945 70.5405C126.972 70.506 126.998 70.4695 127.022 70.435L123.613 68.1172L123.294 68.586L126.7 70.9018C126.718 70.8734 126.736 70.843 126.754 70.8145H126.752Z"
          fill="white"/>
    <path d="M126.752 70.8145C126.813 70.7212 126.88 70.6299 126.945 70.5405C126.972 70.506 126.998 70.4695 127.022 70.435L123.613 68.1172L123.294 68.586L126.7 70.9018C126.718 70.8734 126.736 70.843 126.754 70.8145H126.752Z"
          fill="white"/>
    <path d="M126.353 71.4411L122.935 69.1172L122.616 69.586L126.071 71.9343C126.148 71.7638 126.247 71.5953 126.353 71.4391V71.4411Z"
          fill="white"/>
    <path d="M126.353 71.4411L122.935 69.1172L122.616 69.586L126.071 71.9343C126.148 71.7638 126.247 71.5953 126.353 71.4391V71.4411Z"
          fill="white"/>
    <path d="M125.673 72.5319C125.693 72.5035 125.717 72.4751 125.74 72.4467L122.255 70.0781L121.936 70.547L125.441 72.9297C125.51 72.7917 125.583 72.6557 125.675 72.5319H125.673Z"
          fill="white"/>
    <path d="M125.673 72.5319C125.693 72.5035 125.717 72.4751 125.74 72.4467L122.255 70.0781L121.936 70.547L125.441 72.9297C125.51 72.7917 125.583 72.6557 125.675 72.5319H125.673Z"
          fill="white"/>
    <path d="M125.673 72.5319C125.693 72.5035 125.717 72.4751 125.74 72.4467L122.255 70.0781L121.936 70.547L125.441 72.9297C125.51 72.7917 125.583 72.6557 125.675 72.5319H125.673Z"
          fill="white"/>
    <path d="M125.673 72.5319C125.693 72.5035 125.717 72.4751 125.74 72.4467L122.255 70.0781L121.936 70.547L125.441 72.9297C125.51 72.7917 125.583 72.6557 125.675 72.5319H125.673Z"
          fill="white"/>
</svg>
