<svg viewBox="0 0 89 67" fill="none" xmlns="http://www.w3.org/2000/svg">
    <g clip-path="url(#clip0_2772_2)">
        <path d="M6.2 66.5234H20.2V32.5234L0.199997 17.5234V60.5234C0.199997 63.8384 2.885 66.5234 6.2 66.5234Z"
              fill="#4285F4"/>
        <path d="M68.2 66.5234H82.2C85.515 66.5234 88.2 63.8384 88.2 60.5234V17.5234L68.2 32.5234V66.5234Z"
              fill="#34A853"/>
        <path d="M68.2 6.52398V32.524L88.2 17.524V9.52398C88.2 2.10898 79.735 -2.12602 73.8 2.32398L68.2 6.52398Z"
              fill="#FBBC04"/>
        <path d="M20.2 32.5234V6.52344L44.2 24.5234L68.2 6.52344V32.5234L44.2 50.5234L20.2 32.5234Z" fill="#EA4335"/>
        <path d="M0.199997 9.52398V17.524L20.2 32.524V6.52398L14.6 2.32398C8.665 -2.12602 0.199997 2.10898 0.199997 9.52398Z"
              fill="#C5221F"/>
    </g>
</svg>
