<svg viewBox="0 0 100 98" fill="none" xmlns="http://www.w3.org/2000/svg">
<path d="M83.865 78.1094C84.0294 78.1111 84.1924 78.0789 84.3438 78.0149C84.4953 77.951 84.632 77.8566 84.7455 77.7376C84.8589 77.6186 84.9467 77.4775 85.0034 77.3232C85.0601 77.1689 85.0845 77.0046 85.075 76.8404C85.075 75.9404 84.532 75.5104 83.418 75.5104H81.618V80.2224H82.295V78.1684H83.127L83.146 78.1934L84.437 80.2224H85.161L83.772 78.1224L83.865 78.1094ZM83.082 77.6374H82.297V76.0444H83.292C83.806 76.0444 84.392 76.1284 84.392 76.8014C84.392 77.5754 83.799 77.6374 83.078 77.6374M70.991 17.0044H15.781C14.5279 16.9903 13.3204 17.4742 12.4239 18.3499C11.5275 19.2256 11.0153 20.4213 11 21.6744V77.1134C11.0148 78.3671 11.5266 79.5637 12.4231 80.4403C13.3195 81.3169 14.5273 81.8018 15.781 81.7884H70.991C72.2472 81.8042 73.4583 81.3207 74.3583 80.4441C75.2583 79.5676 75.7736 78.3696 75.791 77.1134V21.6704C75.7731 20.4148 75.2575 19.2177 74.3575 18.3421C73.4574 17.4664 72.2466 16.9839 70.991 17.0004" fill="white"/>
<path d="M83.865 78.1094C84.0294 78.1111 84.1924 78.0789 84.3438 78.0149C84.4953 77.951 84.632 77.8566 84.7455 77.7376C84.8589 77.6186 84.9467 77.4775 85.0034 77.3232C85.0601 77.1689 85.0845 77.0046 85.075 76.8404C85.075 75.9404 84.532 75.5104 83.418 75.5104H81.618V80.2224H82.295V78.1684H83.127L83.146 78.1934L84.437 80.2224H85.161L83.772 78.1224L83.865 78.1094ZM83.082 77.6374H82.297V76.0444H83.292C83.806 76.0444 84.392 76.1284 84.392 76.8014C84.392 77.5754 83.799 77.6374 83.078 77.6374M66.205 72.2044H56.605V57.1704C56.605 53.5854 56.541 48.9704 51.612 48.9704C46.612 48.9704 45.847 52.8764 45.847 56.9094V72.2034H36.247V41.2874H45.463V45.5124H45.592C46.5143 43.9355 47.8471 42.6382 49.4483 41.7587C51.0496 40.8793 52.8594 40.4506 54.685 40.5184C64.415 40.5184 66.209 46.9184 66.209 55.2444L66.205 72.2044ZM25.415 37.0614C24.3132 37.0616 23.236 36.7351 22.3197 36.1231C21.4035 35.5111 20.6893 34.6412 20.2675 33.6233C19.8456 32.6054 19.7351 31.4853 19.9499 30.4045C20.1646 29.3238 20.695 28.3311 21.474 27.5518C22.253 26.7726 23.2455 26.2418 24.3262 26.0267C25.4068 25.8115 26.527 25.9216 27.545 26.3431C28.563 26.7646 29.4332 27.4785 30.0456 28.3945C30.6579 29.3105 30.9848 30.3876 30.985 31.4894C30.9851 32.221 30.8412 32.9455 30.5613 33.6214C30.2815 34.2974 29.8712 34.9116 29.354 35.429C28.8368 35.9464 28.2227 36.3569 27.5469 36.637C26.871 36.9171 26.1466 37.0613 25.415 37.0614ZM30.215 72.2044H20.605V41.2874H30.215V72.2044ZM70.991 17.0044H15.781C14.5279 16.9903 13.3204 17.4742 12.4239 18.3499C11.5275 19.2256 11.0153 20.4213 11 21.6744V77.1134C11.0148 78.3671 11.5266 79.5637 12.4231 80.4403C13.3195 81.3169 14.5273 81.8018 15.781 81.7884H70.991C72.2472 81.8042 73.4583 81.3207 74.3583 80.4441C75.2583 79.5676 75.7736 78.3696 75.791 77.1134V21.6704C75.7731 20.4148 75.2575 19.2177 74.3575 18.3421C73.4574 17.4664 72.2466 16.9839 70.991 17.0004" fill="#0A66C2"/>
<path d="M83.6577 72.7266C82.4897 72.7378 81.3737 73.2111 80.5538 74.043C79.7338 74.8749 79.2767 75.9976 79.2823 77.1656C79.2879 78.3336 79.7558 79.4519 80.5838 80.2759C81.4117 81.0998 82.5322 81.5624 83.7002 81.5624C84.8683 81.5624 85.9888 81.0998 86.8167 80.2759C87.6446 79.4519 88.1126 78.3336 88.1182 77.1656C88.1238 75.9976 87.6666 74.8749 86.8467 74.043C86.0267 73.2111 84.9107 72.7378 83.7427 72.7266H83.6577ZM83.6577 81.0566C82.8916 81.0693 82.139 80.8546 81.4949 80.4396C80.8508 80.0246 80.3443 79.4279 80.0393 78.725C79.7344 78.0221 79.6447 77.2445 79.7816 76.4907C79.9186 75.7368 80.276 75.0405 80.8087 74.4898C81.3414 73.939 82.0254 73.5586 82.7743 73.3966C83.5232 73.2347 84.3033 73.2984 85.016 73.5798C85.7286 73.8612 86.3419 74.3476 86.7781 74.9775C87.2143 75.6074 87.454 76.3525 87.4667 77.1186V77.1836C87.4882 78.1886 87.1096 79.1609 86.4143 79.8868C85.7189 80.6128 84.7637 81.0328 83.7587 81.0546H83.6587" fill="#0A66C2"/>
</svg>
