<svg viewBox="0 0 236 236" fill="none" xmlns="http://www.w3.org/2000/svg">
    <g clip-path="url(#clip0_2619_883)">
        <path d="M118 234.477C182.328 234.477 234.477 182.329 234.477 118C234.477 53.672 182.328 1.52344 118 1.52344C53.6715 1.52344 1.52295 53.672 1.52295 118C1.52295 182.329 53.6715 234.477 118 234.477Z"
              fill="white" stroke="black" stroke-width="4.52107" stroke-miterlimit="10"/>
        <path d="M45.2029 78.6341C58.9922 53.9187 86.8603 35.5329 117.229 35.8557C150.845 36.2152 176.803 56.8368 189.274 79.3835"
              stroke="#C53C00" stroke-width="2.26054" stroke-miterlimit="10"/>
        <path d="M45.2029 156.023C58.9922 180.738 86.8603 199.124 117.229 198.801C150.845 198.442 176.803 177.82 189.274 155.273"
              stroke="#C53C00" stroke-width="2.26054" stroke-miterlimit="10"/>
        <path d="M40.9476 68.5347L30.0551 61.1207L33.3539 56.2744C33.8047 55.6134 34.4291 55.2053 35.2303 55.056C36.0283 54.9068 36.7594 55.056 37.4173 55.5007L38.6327 56.3262C39.2937 56.777 39.7018 57.4015 39.8541 58.1995C40.0064 58.9976 39.8541 59.7286 39.4064 60.3896L37.7524 62.8173L42.5986 66.1161L40.9537 68.5316L40.9476 68.5347ZM36.5431 62.001L37.3686 60.7856C37.594 60.4566 37.6671 60.0911 37.5909 59.686C37.5148 59.2839 37.3107 58.9702 36.9817 58.7448L35.7664 57.9193C35.4374 57.6939 35.0719 57.6238 34.6728 57.703C34.2738 57.7822 33.9601 57.9863 33.7377 58.3153L32.9122 59.5306L36.5431 62.001Z"
              fill="black"/>
        <path d="M40.4207 47.3073L42.3885 45.1263C42.9246 44.5324 43.6008 44.2156 44.411 44.176C45.2243 44.1364 45.9249 44.3831 46.5158 44.9162L51.956 49.8294C52.5439 50.3594 52.8607 51.0326 52.9034 51.8459C52.949 52.6592 52.7023 53.3628 52.1662 53.9598L50.1985 56.1408C49.6624 56.7347 48.9892 57.0546 48.1759 57.0942C47.3657 57.1368 46.6621 56.887 46.0681 56.3509L40.6279 51.4377C40.0339 50.9016 39.7171 50.2284 39.6745 49.4151C39.6318 48.6049 39.8816 47.9013 40.4177 47.3073H40.4207ZM42.5895 49.2659L48.0297 54.1791C48.3221 54.4441 48.6694 54.566 49.0775 54.5477C49.4827 54.5294 49.8238 54.368 50.0949 54.0664C50.366 53.7649 50.494 53.4115 50.4696 53.0034C50.4483 52.5982 50.2899 52.2632 49.9974 52.0012L44.5572 47.088C44.2618 46.8199 43.9115 46.7011 43.5033 46.7225C43.0952 46.7468 42.7601 46.9052 42.492 47.2007C42.2209 47.4992 42.0961 47.8525 42.1143 48.2577C42.1326 48.6628 42.291 49.0009 42.5865 49.2659H42.5895Z"
              fill="black"/>
        <path d="M55.477 40.739L58.8337 37.9062L61.6665 41.263C62.2909 42.0031 62.5255 42.7647 62.364 43.5414C62.2026 44.3181 61.8553 44.9334 61.3192 45.3842L59.0743 47.2789C58.4621 47.7967 57.7523 48.019 56.9421 47.952C56.1318 47.885 55.4709 47.5439 54.953 46.9316L50.2256 41.33C49.7169 40.7299 49.4946 40.0232 49.5494 39.216C49.6073 38.4088 49.9484 37.7387 50.5728 37.2117L52.8178 35.3171C54.222 34.1322 55.5957 34.248 56.936 35.6674L55.8151 36.6147C55.1023 35.9476 54.42 35.8898 53.7651 36.4411L52.6441 37.3884C52.3365 37.6473 52.1659 37.9793 52.1294 38.3845C52.0928 38.7896 52.2025 39.1429 52.4614 39.4475L57.1888 45.0492C57.4477 45.3568 57.7797 45.5274 58.1818 45.5579C58.5839 45.5883 58.9403 45.4756 59.2479 45.2137C59.9333 44.577 59.9942 43.8917 59.4307 43.1545L57.5361 40.9096L56.4151 41.8569L55.477 40.7451V40.739Z"
              fill="black"/>
        <path d="M66.6288 41.2218L61.152 32.5529C60.7256 31.8766 60.6007 31.1425 60.7773 30.3506C60.9571 29.5586 61.3835 28.9494 62.0597 28.5199L64.5422 26.9512C65.2184 26.5248 65.9556 26.3999 66.7475 26.5796C67.5395 26.7593 68.1518 27.1858 68.5752 27.8589L74.0519 36.5279L71.5785 38.0905L68.4472 33.1346L65.9647 34.7034L69.096 39.6592L66.6227 41.2218H66.6288ZM65.1941 33.4758L67.6766 31.9071L66.1079 29.4246C65.8947 29.0895 65.5901 28.8763 65.191 28.791C64.792 28.7057 64.4265 28.7666 64.0884 28.9799C63.7472 29.1961 63.534 29.5007 63.4426 29.8967C63.3512 30.2927 63.4121 30.6582 63.6254 30.9963L65.1941 33.4788V33.4758Z"
              fill="black"/>
        <path d="M77.3477 34.754L71.9136 22.7496L77.2533 20.3341C77.9843 20.0052 78.7275 19.9838 79.489 20.2702C80.2505 20.5595 80.7958 21.0652 81.1217 21.7901L84.1434 28.467C84.4693 29.1889 84.4906 29.9322 84.2073 30.6937C83.9241 31.4582 83.4154 32.0035 82.6874 32.3355L77.3477 34.751V34.754ZM79.4068 32.2106L80.744 31.6044C81.1156 31.4369 81.3715 31.1628 81.5116 30.782C81.6517 30.4013 81.6426 30.0327 81.4811 29.6733L78.4595 22.9964C78.295 22.6339 78.0209 22.3811 77.6401 22.241C77.2563 22.1008 76.8847 22.113 76.5222 22.2775L75.185 22.8837L79.4068 32.2136V32.2106Z"
              fill="black"/>
        <path d="M88.935 29.826L86.0322 19.9935C85.8068 19.2259 85.886 18.4857 86.2728 17.7729C86.6597 17.0601 87.2384 16.5911 88.006 16.3626L90.8236 15.531C91.5912 15.3056 92.3314 15.3848 93.0472 15.7747C93.7599 16.1646 94.2321 16.7434 94.4575 17.5049L97.3603 27.3374L94.555 28.166L92.8949 22.546L90.0773 23.3776L91.7374 28.9975L88.932 29.826H88.935ZM89.6661 21.9795L92.4837 21.1479L91.6521 18.3303C91.5394 17.9496 91.3048 17.6633 90.9424 17.4683C90.5829 17.2764 90.2113 17.2368 89.8306 17.3495C89.4437 17.4622 89.1544 17.6998 88.9564 18.0532C88.7614 18.4095 88.7188 18.7781 88.8315 19.1589L89.663 21.9764L89.6661 21.9795Z"
              fill="black"/>
        <path d="M106.267 12.3438L107.872 22.4718C108.024 23.4313 107.896 24.1897 107.488 24.7502C107.08 25.3107 106.398 25.6671 105.441 25.8194L102.542 26.2793C101.582 26.4316 100.824 26.3037 100.263 25.8955C99.7026 25.4904 99.3463 24.805 99.194 23.8486L98.734 20.9488L101.622 20.4919L102.082 23.3917C102.146 23.7846 102.341 24.1014 102.673 24.336C103.005 24.5735 103.367 24.6588 103.76 24.5979C104.159 24.5339 104.476 24.339 104.716 24.0131C104.957 23.6841 105.045 23.3247 104.981 22.9317L103.376 12.8037L106.264 12.3468L106.267 12.3438Z"
              fill="black"/>
        <path d="M111.959 24.7943L111.981 11.6172H112.648L118.898 17.8737L125.161 11.6385H126.629L126.608 24.8187L123.671 24.8126L123.684 16.7558L118.536 21.8884L113.446 16.7406L113.434 24.7973H111.966L111.959 24.7943Z"
              fill="black"/>
        <path d="M133.032 25.9114L134.013 20.1331C132.128 19.5848 131.333 18.4608 131.619 16.7611L132.353 12.4297L135.235 12.9201L134.501 17.2515C134.434 17.6445 134.519 18.007 134.753 18.342C134.988 18.6771 135.305 18.8781 135.704 18.9451C136.097 19.0121 136.459 18.9269 136.794 18.6893C137.129 18.4517 137.33 18.1349 137.397 17.745L138.132 13.4136L141.013 13.904L140.279 18.2354C139.99 19.9351 138.866 20.7332 136.907 20.6296L135.926 26.4079L133.029 25.9175L133.032 25.9114Z"
              fill="black"/>
        <path d="M155.414 18.1061L158.156 19.16C158.902 19.4464 159.441 19.9642 159.77 20.7074C160.099 21.4506 160.12 22.1939 159.834 22.9371L157.202 29.7785C156.919 30.5187 156.404 31.0548 155.661 31.3868C154.918 31.7218 154.172 31.7432 153.425 31.4568L150.684 30.4029C149.938 30.1166 149.398 29.6018 149.069 28.8586C148.741 28.1154 148.719 27.3721 149.006 26.6258L151.637 19.7845C151.924 19.0382 152.438 18.499 153.182 18.1701C153.925 17.8411 154.668 17.8198 155.414 18.1061ZM154.363 20.8353L151.732 27.6767C151.592 28.0453 151.601 28.4139 151.765 28.7855C151.93 29.1571 152.201 29.416 152.582 29.5622C152.962 29.7084 153.337 29.6993 153.709 29.5318C154.08 29.3642 154.336 29.0992 154.476 28.7306L157.108 21.8893C157.251 21.5177 157.239 21.146 157.068 20.7744C156.901 20.4028 156.63 20.1469 156.258 20.0038C155.883 19.8606 155.509 19.8698 155.137 20.0312C154.766 20.1957 154.507 20.4607 154.367 20.8323L154.363 20.8353Z"
              fill="black"/>
        <path d="M164.543 36.7399L170.057 28.0953C170.486 27.4222 171.098 26.9957 171.893 26.819C172.685 26.6424 173.419 26.7703 174.096 27.2028L176.572 28.7837C177.248 29.2132 177.672 29.8285 177.845 30.6235C178.019 31.4185 177.891 32.1526 177.464 32.8228L171.951 41.4674L169.487 39.8956L172.64 34.955L170.163 33.3741L167.01 38.3147L164.546 36.743L164.543 36.7399ZM170.94 32.1465L173.416 33.7274L174.997 31.251C175.21 30.9159 175.271 30.5504 175.183 30.1514C175.092 29.7554 174.878 29.4478 174.543 29.2345C174.202 29.0183 173.837 28.9543 173.438 29.0396C173.042 29.1249 172.734 29.3351 172.521 29.6732L170.94 32.1496V32.1465Z"
              fill="black"/>
        <path d="M183.044 40.9828L186.389 43.8278L183.544 47.1723C182.916 47.9125 182.204 48.2658 181.412 48.2323C180.62 48.2019 179.956 47.9582 179.423 47.5043L177.184 45.6006C176.575 45.0827 176.237 44.4187 176.173 43.6085C176.109 42.7982 176.334 42.0885 176.852 41.4793L181.601 35.8959C182.109 35.2959 182.77 34.9577 183.574 34.8816C184.382 34.8054 185.097 35.0309 185.719 35.5639L187.958 37.4677C189.359 38.6587 189.468 40.0324 188.29 41.5889L187.172 40.6386C187.714 39.8253 187.659 39.143 187.007 38.5886L185.889 37.6383C185.582 37.3763 185.228 37.2636 184.823 37.294C184.418 37.3245 184.086 37.492 183.83 37.7966L179.082 43.38C178.82 43.6877 178.707 44.041 178.743 44.4461C178.78 44.8482 178.951 45.1802 179.258 45.4422C179.998 46.0118 180.687 45.96 181.32 45.2868L183.224 43.051L182.106 42.1007L183.051 40.9919L183.044 40.9828Z"
              fill="black"/>
        <path d="M185.433 53.2105L195.116 44.2734L197.105 46.427L187.422 55.364L185.436 53.2105H185.433Z" fill="black"/>
        <path d="M190.934 59.4813L201.577 51.7109L203.301 54.0716L193.846 60.9739L196.435 64.5225L195.25 65.3876L190.937 59.4783L190.934 59.4813Z"
              fill="black"/>
        <path d="M197.327 68.6918L208.844 62.2891L212.399 68.6827L211.117 69.3954L208.981 65.5574L205.143 67.6927L206.572 70.2605L205.302 70.9672L203.873 68.3994L200.035 70.5347L202.171 74.3726L200.888 75.0854L197.333 68.6918H197.327Z"
              fill="black"/>
        <path d="M42.5286 166.92L44.3318 169.22L35.1176 176.445L36.0253 177.6C36.2751 177.919 36.6041 178.102 37.0061 178.151C37.4082 178.197 37.7646 178.099 38.0753 177.858L46.1442 171.532L47.9475 173.832L38.7332 181.057L39.641 182.211C39.8877 182.525 40.2106 182.705 40.6157 182.75C41.0178 182.799 41.3741 182.699 41.6848 182.458L49.7538 176.131L51.5661 178.443L45.1329 183.487C44.0607 184.328 42.8332 184.666 41.4503 184.502C40.0674 184.337 38.9556 183.716 38.1088 182.635L35.7755 179.659L36.1441 179.369C35.5532 179.119 35.0019 178.669 34.4932 178.02L32.1599 175.044L42.5286 166.914V166.92Z"
              fill="black"/>
        <path d="M56.3576 182.934L58.5264 184.917C59.1173 185.456 59.4311 186.135 59.4646 186.945C59.4981 187.759 59.2483 188.459 58.7092 189.047L53.7624 194.457C53.2294 195.042 52.5532 195.352 51.7399 195.392C50.9266 195.432 50.2229 195.182 49.632 194.64L47.4632 192.657C46.8723 192.118 46.5586 191.441 46.522 190.628C46.4855 189.818 46.7383 189.117 47.2774 188.526L52.2242 183.117C52.7633 182.526 53.4395 182.212 54.2528 182.175C55.0631 182.139 55.7637 182.392 56.3546 182.931L56.3576 182.934ZM54.3838 185.09L49.4371 190.5C49.1721 190.79 49.0472 191.14 49.0624 191.545C49.0776 191.95 49.236 192.291 49.5376 192.565C49.8391 192.839 50.1925 192.967 50.5976 192.949C51.0027 192.928 51.3378 192.776 51.6028 192.483L56.5495 187.073C56.8176 186.781 56.9425 186.431 56.9212 186.022C56.8998 185.614 56.7414 185.276 56.449 185.008C56.1505 184.737 55.8002 184.609 55.3951 184.624C54.99 184.64 54.6519 184.795 54.3838 185.09Z"
              fill="black"/>
        <path d="M69.6687 193.397L63.7868 201.795C63.2294 202.59 62.611 203.047 61.9287 203.166C61.2464 203.285 60.5093 203.068 59.7143 202.511L57.3079 200.826C56.5129 200.269 56.056 199.651 55.9372 198.968C55.8154 198.286 56.0347 197.549 56.5921 196.754L58.2765 194.347L60.6707 196.026L58.9863 198.432C58.7578 198.758 58.6817 199.121 58.7548 199.523C58.8279 199.925 59.0289 200.238 59.3548 200.467C59.6838 200.698 60.0493 200.778 60.4484 200.711C60.8474 200.641 61.1642 200.443 61.3926 200.117L67.2745 191.719L69.6687 193.397Z"
              fill="black"/>
        <path d="M68.0912 207.709L73.6532 197.407L71.0793 196.018L71.7769 194.727L79.5077 198.9L78.8102 200.191L76.2363 198.802L70.6742 209.104L68.0881 207.709H68.0912Z"
              fill="black"/>
        <path d="M76.906 212.156L81.7857 199.914L88.5814 202.622L88.0392 203.987L83.9576 202.36L82.331 206.439L85.0602 207.526L84.5211 208.879L81.7918 207.791L80.1653 211.873L84.2469 213.499L83.7017 214.864L76.906 212.156Z"
              fill="black"/>
        <path d="M88.9559 216.605L92.206 203.836L97.8869 205.283C98.6636 205.481 99.2576 205.929 99.6718 206.629C100.086 207.33 100.196 208.064 99.9978 208.838L99.7998 209.608C99.6383 210.242 99.2667 210.799 98.6819 211.274C98.0971 211.753 97.296 211.859 96.2755 211.6L97.6858 211.96C98.0757 212.06 98.3742 212.283 98.5844 212.633C98.7946 212.983 98.8464 213.355 98.7489 213.745L97.4696 218.774L94.6368 218.052L95.7212 213.796C95.8217 213.407 95.7638 213.035 95.5536 212.685C95.3435 212.334 95.0449 212.109 94.6581 212.011L93.2356 211.649L91.7887 217.33L88.9559 216.608V216.605ZM93.592 210.236L95.0145 210.598C95.4013 210.696 95.7699 210.641 96.1232 210.431C96.4766 210.22 96.702 209.922 96.7994 209.538L97.1619 208.116C97.2594 207.729 97.2046 207.363 96.9914 207.013C96.7812 206.666 96.4827 206.44 96.0958 206.343L94.6733 205.98L93.5889 210.236H93.592Z"
              fill="black"/>
        <path d="M102.989 219.793L104.141 209.605C104.229 208.81 104.591 208.158 105.228 207.652C105.862 207.146 106.577 206.939 107.372 207.028L110.291 207.357C111.086 207.445 111.737 207.81 112.243 208.447C112.749 209.084 112.959 209.799 112.868 210.588L111.716 220.777L108.81 220.448L109.468 214.624L106.55 214.295L105.892 220.119L102.986 219.79L102.989 219.793ZM106.715 212.852L109.633 213.181L109.962 210.262C110.007 209.867 109.901 209.51 109.645 209.193C109.389 208.877 109.063 208.697 108.667 208.651C108.268 208.605 107.909 208.709 107.589 208.962C107.269 209.215 107.089 209.538 107.044 209.934L106.715 212.852Z"
              fill="black"/>
        <path d="M133.191 211.234L134.638 211.088L134.784 212.55C134.866 213.379 134.659 214.098 134.159 214.71C133.66 215.322 133.038 215.663 132.298 215.739L132.167 215.752L132.313 217.214C132.377 217.856 132.164 218.53 131.668 219.233C131.174 219.937 130.516 220.333 129.697 220.415L126.773 220.711C125.953 220.793 125.231 220.537 124.607 219.946C123.983 219.352 123.635 218.737 123.571 218.094L123.425 216.632C123.358 215.977 123.535 215.304 123.952 214.612C124.369 213.921 125.067 213.528 126.042 213.431C124.08 213.397 123.011 212.523 122.837 210.802C122.758 210.01 122.974 209.297 123.489 208.667C124.004 208.036 124.659 207.68 125.454 207.6L128.378 207.305C129.173 207.226 129.889 207.442 130.516 207.96C131.144 208.475 131.5 209.13 131.579 209.922L131.726 211.384L128.817 211.676L128.67 210.214C128.631 209.809 128.451 209.48 128.134 209.23C127.817 208.98 127.461 208.874 127.065 208.913C126.666 208.953 126.334 209.13 126.075 209.437C125.816 209.745 125.707 210.104 125.749 210.509L125.822 211.247C125.908 212.099 126.444 212.532 127.431 212.547L127.577 214.009C126.614 214.232 126.176 214.768 126.264 215.618L126.483 217.802C126.532 218.283 126.712 218.633 127.022 218.843C127.333 219.057 127.69 219.142 128.089 219.102C128.485 219.063 128.814 218.907 129.079 218.636C129.344 218.365 129.45 217.99 129.401 217.506L129.106 214.585L132.015 214.293C132.42 214.253 132.752 214.076 133.008 213.766C133.264 213.455 133.37 213.099 133.331 212.699L133.185 211.237L133.191 211.234Z"
              fill="black"/>
        <path d="M148.627 216.721L145.173 205.533L142.38 206.395L141.948 204.991L150.342 202.398L150.775 203.803L147.982 204.665L151.436 215.853L148.63 216.718L148.627 216.721Z"
              fill="black"/>
        <path d="M155.307 200.366L157.985 199.16C158.716 198.831 159.459 198.813 160.221 199.102C160.982 199.392 161.524 199.9 161.85 200.625L164.857 207.311C165.183 208.033 165.201 208.776 164.915 209.538C164.628 210.302 164.12 210.848 163.392 211.177L160.714 212.383C159.983 212.712 159.24 212.73 158.481 212.444C157.723 212.154 157.178 211.646 156.849 210.918L153.842 204.232C153.513 203.501 153.495 202.757 153.781 201.999C154.071 201.241 154.579 200.695 155.307 200.366ZM156.508 203.032L159.514 209.718C159.675 210.077 159.946 210.33 160.324 210.473C160.702 210.619 161.08 210.607 161.451 210.44C161.823 210.272 162.079 209.998 162.222 209.617C162.365 209.236 162.356 208.868 162.194 208.508L159.188 201.822C159.024 201.46 158.752 201.207 158.369 201.064C157.988 200.924 157.613 200.933 157.251 201.097C156.882 201.262 156.626 201.536 156.48 201.914C156.334 202.294 156.343 202.663 156.508 203.026V203.032Z"
              fill="black"/>
        <path d="M176.865 200.179C177.794 201.897 177.486 203.24 175.945 204.209L173.456 205.771C172.777 206.198 172.043 206.319 171.251 206.14C170.459 205.96 169.85 205.531 169.423 204.851L165.524 198.643C165.107 197.976 164.982 197.248 165.15 196.456C165.317 195.664 165.75 195.049 166.444 194.614L168.933 193.051C170.489 192.073 171.832 192.378 172.963 193.971L171.72 194.754C171.108 193.992 170.437 193.84 169.712 194.297L168.47 195.08C168.129 195.293 167.912 195.597 167.821 195.993C167.729 196.389 167.787 196.755 168.001 197.093L171.9 203.301C172.11 203.633 172.411 203.846 172.807 203.937C173.203 204.029 173.572 203.968 173.916 203.752L175.159 202.969C175.887 202.512 176.039 201.842 175.616 200.962L176.858 200.182L176.865 200.179Z"
              fill="black"/>
        <path d="M174.483 189.261L181.214 183.617L182.159 184.741L184.248 196.353L188.738 192.588L189.682 193.715L182.951 199.359L182.006 198.235L179.917 186.624L175.427 190.388L174.483 189.261Z"
              fill="black"/>
        <path d="M193.63 189.837L183.943 180.903L188.902 175.523L189.981 176.519L187.002 179.748L190.23 182.724L192.223 180.565L193.292 181.552L191.3 183.711L194.528 186.69L197.507 183.461L198.586 184.457L193.627 189.837H193.63Z"
              fill="black"/>
        <path d="M202.186 180.143L191.366 172.622L193.036 170.222L197.455 173.292L195.741 166.332L197.221 164.203L199.286 172.775L208.04 171.721L206.365 174.133L199.655 174.819L203.858 177.74L202.189 180.14L202.186 180.143Z"
              fill="black"/>
        <path d="M39.3223 117.79C40.1364 112.775 36.7309 108.05 31.7161 107.235C26.7013 106.421 21.976 109.827 21.162 114.842C20.348 119.857 23.7534 124.582 28.7683 125.396C33.7831 126.21 38.5083 122.804 39.3223 117.79Z"
              fill="#C53C00" stroke="#C53C00" stroke-width="0.452107" stroke-miterlimit="10"/>
        <path d="M207.986 125.335C213.066 125.335 217.185 121.217 217.185 116.137C217.185 111.056 213.066 106.938 207.986 106.938C202.905 106.938 198.786 111.056 198.786 116.137C198.786 121.217 202.905 125.335 207.986 125.335Z"
              fill="#C53C00" stroke="#C53C00" stroke-width="0.452107" stroke-miterlimit="10"/>
        <path opacity="0.91"
              d="M95.7153 154.609C101.095 154.256 106.495 152.955 111.11 150.165C115.725 147.375 119.502 142.994 120.915 137.792C122.331 132.589 121.14 126.595 117.351 122.757C113.562 118.922 105.551 118.37 101.658 119.805C102.386 118.803 104.329 117.249 105.38 116.107C110.717 118.288 116.827 118.447 122.191 116.482C127.555 114.517 132.329 110.192 134.89 105.084C134.753 104.992 134.363 104.898 134.007 104.685C133.718 105.16 133.315 105.863 132.996 106.39C127.248 109.296 120.242 109.354 114.467 106.138C114.253 103.746 114.156 101.38 114.058 99.0098C109.812 98.6534 105.749 96.1801 103.501 92.5248C101.253 88.8696 100.878 84.1269 102.523 80.1641C98.405 82.3085 95.3711 86.3231 94.0004 91.1694C78.6241 99.4363 67.7589 115.474 67.8564 133.125C68.3224 144.447 73.5128 156.677 81.9351 164.256C95.3863 176.354 113.215 177.025 113.215 177.025C113.215 177.025 131.305 177.826 143.62 170.25C152.481 164.801 161.531 157.024 164.994 145.361C167.827 135.218 167.233 130.028 166.24 124.066C165.451 119.345 163.188 115.062 160.587 112.461C154.671 106.546 145.484 105.047 140.044 107.243C135.496 109.077 130.458 115.836 129.06 123.67C127.625 131.718 128.673 140.022 120.282 150.079C114.622 156.863 104.131 158.042 95.7153 154.615V154.609Z"
              fill="black" stroke="black" stroke-width="0.452107" stroke-miterlimit="10"/>
        <path d="M141.037 108.589C145.192 107.026 148.673 108.156 149.846 108.366C151.448 108.653 154.805 109.81 157.306 111.811C159.889 113.877 162.426 116.517 164.086 121.726C167.806 133.383 165.868 152.025 150.446 163.774C137.138 174.532 113.108 178.623 93.9029 169.186C86.632 165.287 77.5762 158.376 73.4762 147.532C70.5703 139.844 69.0747 131.495 70.6922 123.438C73.8326 110.492 82.922 98.3205 94.7923 92.265C95.8006 88.0676 97.8231 85.2561 100.589 82.5391C99.136 86.438 100.863 92.2955 103.806 95.2379C105.478 96.9102 108.828 99.7887 112.816 100.069C112.892 102.055 112.968 104.507 113.044 106.493C113.592 107.124 114.293 107.739 117.345 108.948C121.817 110.526 128.006 109.518 132.015 108.071C128.484 111.601 125.243 114.303 120.382 115.677C116.523 116.639 110.537 116.371 106.702 114.955C102.867 113.538 99.666 110.681 97.3754 107.297C96.888 107.602 96.5164 107.836 95.9407 108.092C96.9306 109.938 100.72 113.429 103.873 115.348C102.587 116.633 100.799 118.899 98.7948 120.56C99.3736 121.415 99.2395 121.236 99.4253 121.51C102.054 120.416 109.931 119.917 114.278 123.097C118.963 126.524 121.265 130.77 119.322 137.788C118.299 141.48 114.022 147.608 109.234 150.072C104.445 152.537 98.7369 153.435 93.4247 153.435C93.4247 153.981 93.3668 154.264 93.3668 154.748C101.515 158.897 112.895 158.522 120.038 152.787C128.024 146.375 129.432 133.889 129.843 128.607C130.199 124.047 131.61 119.917 132.929 117.23C134.302 114.437 137.388 109.962 141.037 108.592V108.589Z"
              fill="#C53C00"/>
        <path d="M132.286 103.625L130.47 106.836L130.355 107.417L130.361 107.454L132.38 106.765L133.577 104.606L132.286 103.625Z"
              fill="black"/>
        <path d="M123.194 74.5491C123.096 74.144 123.194 70.443 120.166 66.1908C117.814 63.2392 116.416 62.6239 116.328 63.5286C116.291 63.8849 116.288 63.5956 115.853 68.0367C115.731 69.2734 115.481 71.168 115.426 72.2828C114.473 72.4169 113.918 72.3651 112.95 72.4108C112.74 68.0336 112.944 63.0046 112.737 58.6641C109.919 60.2054 107.007 62.5356 105.301 67.132C104.132 71.8564 104.771 74.0404 105.898 77.8266C103.854 82.2098 103.507 86.0052 106.276 90.7478C109.621 95.7555 114.534 97.4857 117.869 97.4857C126.858 97.4857 129.749 93.8335 132.679 91.1164C135.067 84.4426 129.319 77.5311 123.194 74.5491Z"
              fill="black"/>
        <path d="M129.048 112.088C129.118 113.791 130.108 115.426 131.585 116.148L132.335 114.759C131 114.141 130.044 112.782 129.91 111.32C129.615 111.594 129.316 111.866 129.051 112.088H129.048Z"
              fill="black"/>
        <path d="M111.518 60.7296L111.716 74.123C117.808 72.8954 123.181 75.5577 124.765 76.8279C127.464 78.9905 133.066 85.5334 131.201 89.5663C129.173 93.9618 125.384 96.2219 118.411 96.2219C113.571 96.2219 108.627 92.9474 106.474 88.6129C104.32 84.2784 105.578 79.5053 106.745 77.7325C107.12 77.1629 101.99 68.168 111.515 60.7266L111.518 60.7296Z"
              fill="#C53C00"/>
        <path d="M130.83 90.8321C130.321 90.692 129.876 90.3661 129.49 90.0066C129.103 89.6472 128.573 89.0593 128.874 88.6237C129.176 88.1882 129.502 88.3222 129.883 88.706C130.327 89.1507 130.964 89.6015 131.591 89.5223C132.219 89.4431 132.679 88.9009 132.618 88.2734C132.913 90.2473 132.103 92.6475 130.83 90.8291V90.8321Z"
              fill="black"/>
        <path d="M129.642 88.1791C129.944 88.773 130.507 89.2939 131.104 89.501C132.112 89.8452 132.536 88.8736 132.536 88.0664C132.536 83.9481 127.397 77.1281 121.46 75.2578"
              fill="#C53C00"/>
        <path d="M120.565 86.4878C122.402 86.4878 123.891 84.9795 123.891 83.1189C123.891 81.2583 122.402 79.75 120.565 79.75C118.728 79.75 117.239 81.2583 117.239 83.1189C117.239 84.9795 118.728 86.4878 120.565 86.4878Z"
              fill="black"/>
        <path d="M122.42 80.3249C120.288 79.1186 117.485 79.4567 115.469 80.8488C115.234 81.0102 115.149 81.3575 115.283 81.6103C115.417 81.8631 115.752 81.9849 116.017 81.8814C116.998 81.4976 118.094 81.4153 119.124 81.6499"
              fill="black"/>
        <path d="M120.62 81.1243C121.256 80.8167 122.112 81.103 122.435 81.7305C122.758 82.3579 122.496 83.22 121.878 83.5611C121.259 83.9023 120.388 83.6647 120.032 83.0555C119.675 82.4463 119.889 81.5721 120.48 81.1883L120.62 81.1243Z"
              fill="#FCFCFC"/>
        <path d="M82.3768 78.1127C85.1542 78.1127 87.4058 75.8611 87.4058 73.0837C87.4058 70.3062 85.1542 68.0547 82.3768 68.0547C79.5993 68.0547 77.3478 70.3062 77.3478 73.0837C77.3478 75.8611 79.5993 78.1127 82.3768 78.1127Z"
              fill="#141210"/>
        <path d="M80.5553 57.6251C80.5553 55.9315 81.9291 54.5547 83.6257 54.5547C85.3223 54.5547 86.6961 55.9284 86.6961 57.6251C86.6961 59.3217 85.3223 60.6955 83.6257 60.6955C83.4125 60.6955 83.2084 60.6742 83.0074 60.6346C81.6092 60.3482 80.5553 59.1115 80.5553 57.6281V57.6251Z"
              fill="#141210"/>
        <path d="M79.4617 102.86L71.5543 86.7283L79.6993 76.2744L78.8708 75.4062L70.0282 86.576L78.5571 104.502"
              fill="#141210"/>
        <path d="M163.243 102.974C165.949 102.974 168.144 100.78 168.144 98.0729C168.144 95.3662 165.949 93.1719 163.243 93.1719C160.536 93.1719 158.342 95.3662 158.342 98.0729C158.342 100.78 160.536 102.974 163.243 102.974Z"
              fill="#141210"/>
        <path d="M136.026 73.7442C136.026 70.424 138.716 67.7344 142.036 67.7344C145.356 67.7344 148.046 70.424 148.046 73.7442C148.046 74.5362 147.894 75.2916 147.617 75.983C146.73 78.1944 144.564 79.757 142.036 79.757C138.716 79.757 136.026 77.0674 136.026 73.7472V73.7442Z"
              fill="#141210"/>
        <path d="M163.243 101.656C165.221 101.656 166.825 100.053 166.825 98.0743C166.825 96.096 165.221 94.4922 163.243 94.4922C161.264 94.4922 159.661 96.096 159.661 98.0743C159.661 100.053 161.264 101.656 163.243 101.656Z"
              fill="#B02300"/>
        <path d="M145.555 77.2616C147.498 75.3179 147.498 72.1665 145.555 70.2228C143.611 68.2791 140.459 68.2791 138.516 70.2228C136.572 72.1665 136.572 75.3179 138.516 77.2616C140.459 79.2053 143.611 79.2053 145.555 77.2616Z"
              fill="#B02300"/>
        <path d="M111.177 74.1729C109.678 74.6146 108.53 75.507 107.534 76.7102C105.935 71.9097 107.226 66.2715 110.747 62.6406"
              fill="#0D0A09"/>
        <path d="M142.036 77.1896C143.944 77.1896 145.49 75.6431 145.49 73.7354C145.49 71.8277 143.944 70.2812 142.036 70.2812C140.129 70.2812 138.582 71.8277 138.582 73.7354C138.582 75.6431 140.129 77.1896 142.036 77.1896Z"
              fill="black"/>
        <path d="M82.3768 76.6721C84.3552 76.6721 85.9589 75.0683 85.9589 73.0899C85.9589 71.1116 84.3552 69.5078 82.3768 69.5078C80.3985 69.5078 78.7947 71.1116 78.7947 73.0899C78.7947 75.0683 80.3985 76.6721 82.3768 76.6721Z"
              fill="#C00000"/>
        <path d="M83.6255 59.2872C84.5441 59.2872 85.2887 58.5426 85.2887 57.6241C85.2887 56.7055 84.5441 55.9609 83.6255 55.9609C82.707 55.9609 81.9624 56.7055 81.9624 57.6241C81.9624 58.5426 82.707 59.2872 83.6255 59.2872Z"
              fill="#C00000"/>
        <path d="M147.37 76.4542C151.646 76.64 155.816 78.6108 158.67 81.8C161.525 84.9892 163.026 89.3511 162.737 93.6216C163.169 93.6094 163.605 93.6003 164.038 93.5881C164.391 88.949 162.81 84.1911 159.749 80.6821C156.688 77.1761 152.189 74.9647 147.543 74.6875C147.513 75.2388 147.485 75.7932 147.367 76.4511H147.37V76.4542Z"
              fill="#141210"/>
        <path d="M82.6691 59.5703L82.6417 68.3703L83.9485 68.815L83.9759 60.4445" fill="#141210"/>
        <path d="M142.036 75.6618C143.093 75.6618 143.949 74.8053 143.949 73.7488C143.949 72.6924 143.093 71.8359 142.036 71.8359C140.98 71.8359 140.123 72.6924 140.123 73.7488C140.123 74.8053 140.98 75.6618 142.036 75.6618Z"
              fill="#C00000"/>
        <path d="M143.702 97.126C142.755 99.3831 141.025 102.216 139.645 104.168C138.667 105.548 136.459 105.484 134.787 105.222C132.801 104.912 131.068 102.904 130.961 101.217C130.854 99.5294 132.061 97.5373 132.984 96.1209C133.906 94.7045 135.902 91.1711 137.102 89.9831C138.262 88.8348 141.381 90.37 142.469 91.5884C143.556 92.8068 144.473 94.9695 143.699 97.1291H143.702V97.126Z"
              fill="#050404"/>
        <path d="M143.702 97.126C143.154 99.2065 140.8 102.149 139.645 104.168C138.808 105.637 136.459 105.484 134.787 105.222C132.801 104.912 131.068 102.904 130.961 101.217C130.854 99.5294 132.061 97.5373 132.984 96.1209C133.906 94.7045 135.902 91.1711 137.102 89.9831C138.262 88.8348 141.381 90.37 142.469 91.5884C143.556 92.8068 144.272 94.8811 143.699 97.1291H143.702V97.126Z"
              fill="#050404"/>
        <path d="M137.635 91.1184C136.806 91.9469 134.646 95.6022 133.02 98.2552C131.741 100.342 131.987 102.285 133.577 103.522C135.548 105.054 138.244 104.426 138.856 103.814C139.98 102.69 141.272 99.9427 142.137 98.6086C143.105 97.116 143.623 95.4163 142.38 93.1227C141.57 91.6301 138.725 90.0279 137.635 91.1154V91.1184Z"
              fill="#B4AEA7"/>
        <path d="M143.108 95.5505C143.063 95.1515 143.023 94.786 142.716 94.4174C142.106 93.7382 140.998 93.4457 140.096 93.6193C139.493 93.7351 138.348 94.387 137.747 95.3404C139.2 96.3029 140.897 97.4086 142.347 98.3346C142.88 97.5274 143.108 96.5131 143.105 95.5505H143.108Z"
              fill="#92897F"/>
        <path d="M134.366 100.312C133.9 101.571 134.022 103.447 135.183 104.123C136.337 104.796 138.128 104.461 139.237 103.624C137.598 102.536 136.093 101.461 134.366 100.312Z"
              fill="#92897F"/>
        <path d="M139.724 103.83C139.758 103.787 139.785 103.742 139.819 103.699C139.849 103.662 139.874 103.623 139.892 103.577C139.904 103.547 139.916 103.531 139.938 103.507C139.938 103.507 139.953 103.492 139.959 103.489C139.962 103.483 139.974 103.461 139.974 103.458C139.999 103.409 140.02 103.361 140.041 103.309C140.056 103.269 140.075 103.23 140.096 103.193L134.839 99.6172L134.37 100.309L139.664 103.909C139.685 103.882 139.706 103.854 139.724 103.827V103.83Z"
              fill="black"/>
        <path d="M142.524 99.3138C142.615 99.1737 142.716 99.0366 142.813 98.9026C142.853 98.8508 142.892 98.796 142.929 98.7442L137.811 95.2656L137.333 95.9693L142.444 99.4448C142.472 99.4021 142.499 99.3564 142.527 99.3138H142.524Z"
              fill="black"/>
        <path d="M142.524 99.3138C142.615 99.1737 142.716 99.0366 142.813 98.9026C142.853 98.8508 142.892 98.796 142.929 98.7442L137.811 95.2656L137.333 95.9693L142.444 99.4448C142.472 99.4021 142.499 99.3564 142.527 99.3138H142.524Z"
              fill="black"/>
        <path d="M141.924 100.253L136.794 96.7656L136.316 97.4693L141.5 100.994C141.616 100.738 141.765 100.485 141.924 100.25V100.253Z"
              fill="black"/>
        <path d="M141.924 100.253L136.794 96.7656L136.316 97.4693L141.5 100.994C141.616 100.738 141.765 100.485 141.924 100.25V100.253Z"
              fill="black"/>
        <path d="M140.903 101.901C140.934 101.859 140.97 101.816 141.004 101.773L135.774 98.2188L135.295 98.9224L140.556 102.498C140.659 102.291 140.769 102.087 140.906 101.901H140.903Z"
              fill="black"/>
        <path d="M140.903 101.901C140.934 101.859 140.97 101.816 141.004 101.773L135.774 98.2188L135.295 98.9224L140.556 102.498C140.659 102.291 140.769 102.087 140.906 101.901H140.903Z"
              fill="black"/>
        <path d="M140.903 101.901C140.934 101.859 140.97 101.816 141.004 101.773L135.774 98.2188L135.295 98.9224L140.556 102.498C140.659 102.291 140.769 102.087 140.906 101.901H140.903Z"
              fill="black"/>
        <path d="M140.903 101.901C140.934 101.859 140.97 101.816 141.004 101.773L135.774 98.2188L135.295 98.9224L140.556 102.498C140.659 102.291 140.769 102.087 140.906 101.901H140.903Z"
              fill="black"/>
        <path d="M142.524 99.3138C142.615 99.1737 142.716 99.0366 142.813 98.9026C142.853 98.8508 142.892 98.796 142.929 98.7442L137.811 95.2656L137.333 95.9693L142.444 99.4448C142.472 99.4021 142.499 99.3564 142.527 99.3138H142.524Z"
              fill="black"/>
        <path d="M142.524 99.3138C142.615 99.1737 142.716 99.0366 142.813 98.9026C142.853 98.8508 142.892 98.796 142.929 98.7442L137.811 95.2656L137.333 95.9693L142.444 99.4448C142.472 99.4021 142.499 99.3564 142.527 99.3138H142.524Z"
              fill="black"/>
        <path d="M141.924 100.253L136.794 96.7656L136.316 97.4693L141.5 100.994C141.616 100.738 141.765 100.485 141.924 100.25V100.253Z"
              fill="black"/>
        <path d="M141.924 100.253L136.794 96.7656L136.316 97.4693L141.5 100.994C141.616 100.738 141.765 100.485 141.924 100.25V100.253Z"
              fill="black"/>
        <path d="M140.903 101.901C140.934 101.859 140.97 101.816 141.004 101.773L135.774 98.2188L135.295 98.9224L140.556 102.498C140.659 102.291 140.769 102.087 140.906 101.901H140.903Z"
              fill="black"/>
        <path d="M140.903 101.901C140.934 101.859 140.97 101.816 141.004 101.773L135.774 98.2188L135.295 98.9224L140.556 102.498C140.659 102.291 140.769 102.087 140.906 101.901H140.903Z"
              fill="black"/>
        <path d="M140.903 101.901C140.934 101.859 140.97 101.816 141.004 101.773L135.774 98.2188L135.295 98.9224L140.556 102.498C140.659 102.291 140.769 102.087 140.906 101.901H140.903Z"
              fill="black"/>
        <path d="M140.903 101.901C140.934 101.859 140.97 101.816 141.004 101.773L135.774 98.2188L135.295 98.9224L140.556 102.498C140.659 102.291 140.769 102.087 140.906 101.901H140.903Z"
              fill="black"/>
        <path d="M142.524 99.3138C142.615 99.1737 142.716 99.0366 142.813 98.9026C142.853 98.8508 142.892 98.796 142.929 98.7442L137.811 95.2656L137.333 95.9693L142.444 99.4448C142.472 99.4021 142.499 99.3564 142.527 99.3138H142.524Z"
              fill="black"/>
        <path d="M142.524 99.3138C142.615 99.1737 142.716 99.0366 142.813 98.9026C142.853 98.8508 142.892 98.796 142.929 98.7442L137.811 95.2656L137.333 95.9693L142.444 99.4448C142.472 99.4021 142.499 99.3564 142.527 99.3138H142.524Z"
              fill="black"/>
        <path d="M141.924 100.253L136.794 96.7656L136.316 97.4693L141.5 100.994C141.616 100.738 141.765 100.485 141.924 100.25V100.253Z"
              fill="black"/>
        <path d="M141.924 100.253L136.794 96.7656L136.316 97.4693L141.5 100.994C141.616 100.738 141.765 100.485 141.924 100.25V100.253Z"
              fill="black"/>
        <path d="M140.903 101.901C140.934 101.859 140.97 101.816 141.004 101.773L135.774 98.2188L135.295 98.9224L140.556 102.498C140.659 102.291 140.769 102.087 140.906 101.901H140.903Z"
              fill="black"/>
        <path d="M140.903 101.901C140.934 101.859 140.97 101.816 141.004 101.773L135.774 98.2188L135.295 98.9224L140.556 102.498C140.659 102.291 140.769 102.087 140.906 101.901H140.903Z"
              fill="black"/>
        <path d="M140.903 101.901C140.934 101.859 140.97 101.816 141.004 101.773L135.774 98.2188L135.295 98.9224L140.556 102.498C140.659 102.291 140.769 102.087 140.906 101.901H140.903Z"
              fill="black"/>
        <path d="M140.903 101.901C140.934 101.859 140.97 101.816 141.004 101.773L135.774 98.2188L135.295 98.9224L140.556 102.498C140.659 102.291 140.769 102.087 140.906 101.901H140.903Z"
              fill="black"/>
        <path d="M142.524 99.3138C142.615 99.1737 142.716 99.0366 142.813 98.9026C142.853 98.8508 142.892 98.796 142.929 98.7442L137.811 95.2656L137.333 95.9693L142.444 99.4448C142.472 99.4021 142.499 99.3564 142.527 99.3138H142.524Z"
              fill="black"/>
        <path d="M142.524 99.3138C142.615 99.1737 142.716 99.0366 142.813 98.9026C142.853 98.8508 142.892 98.796 142.929 98.7442L137.811 95.2656L137.333 95.9693L142.444 99.4448C142.472 99.4021 142.499 99.3564 142.527 99.3138H142.524Z"
              fill="black"/>
        <path d="M141.924 100.253L136.794 96.7656L136.316 97.4693L141.5 100.994C141.616 100.738 141.765 100.485 141.924 100.25V100.253Z"
              fill="black"/>
        <path d="M141.924 100.253L136.794 96.7656L136.316 97.4693L141.5 100.994C141.616 100.738 141.765 100.485 141.924 100.25V100.253Z"
              fill="black"/>
        <path d="M140.903 101.901C140.934 101.859 140.97 101.816 141.004 101.773L135.774 98.2188L135.295 98.9224L140.556 102.498C140.659 102.291 140.769 102.087 140.906 101.901H140.903Z"
              fill="black"/>
        <path d="M140.903 101.901C140.934 101.859 140.97 101.816 141.004 101.773L135.774 98.2188L135.295 98.9224L140.556 102.498C140.659 102.291 140.769 102.087 140.906 101.901H140.903Z"
              fill="black"/>
        <path d="M140.903 101.901C140.934 101.859 140.97 101.816 141.004 101.773L135.774 98.2188L135.295 98.9224L140.556 102.498C140.659 102.291 140.769 102.087 140.906 101.901H140.903Z"
              fill="black"/>
        <path d="M140.903 101.901C140.934 101.859 140.97 101.816 141.004 101.773L135.774 98.2188L135.295 98.9224L140.556 102.498C140.659 102.291 140.769 102.087 140.906 101.901H140.903Z"
              fill="black"/>
        <path d="M142.524 99.3138C142.615 99.1737 142.716 99.0366 142.813 98.9026C142.853 98.8508 142.892 98.796 142.929 98.7442L137.811 95.2656L137.333 95.9693L142.444 99.4448C142.472 99.4021 142.499 99.3564 142.527 99.3138H142.524Z"
              fill="black"/>
        <path d="M142.524 99.3138C142.615 99.1737 142.716 99.0366 142.813 98.9026C142.853 98.8508 142.892 98.796 142.929 98.7442L137.811 95.2656L137.333 95.9693L142.444 99.4448C142.472 99.4021 142.499 99.3564 142.527 99.3138H142.524Z"
              fill="black"/>
        <path d="M141.924 100.253L136.794 96.7656L136.316 97.4693L141.5 100.994C141.616 100.738 141.765 100.485 141.924 100.25V100.253Z"
              fill="black"/>
        <path d="M141.924 100.253L136.794 96.7656L136.316 97.4693L141.5 100.994C141.616 100.738 141.765 100.485 141.924 100.25V100.253Z"
              fill="black"/>
        <path d="M140.903 101.901C140.934 101.859 140.97 101.816 141.004 101.773L135.774 98.2188L135.295 98.9224L140.556 102.498C140.659 102.291 140.769 102.087 140.906 101.901H140.903Z"
              fill="black"/>
        <path d="M140.903 101.901C140.934 101.859 140.97 101.816 141.004 101.773L135.774 98.2188L135.295 98.9224L140.556 102.498C140.659 102.291 140.769 102.087 140.906 101.901H140.903Z"
              fill="black"/>
        <path d="M140.903 101.901C140.934 101.859 140.97 101.816 141.004 101.773L135.774 98.2188L135.295 98.9224L140.556 102.498C140.659 102.291 140.769 102.087 140.906 101.901H140.903Z"
              fill="black"/>
        <path d="M140.903 101.901C140.934 101.859 140.97 101.816 141.004 101.773L135.774 98.2188L135.295 98.9224L140.556 102.498C140.659 102.291 140.769 102.087 140.906 101.901H140.903Z"
              fill="black"/>
        <path d="M142.524 99.3138C142.615 99.1737 142.716 99.0366 142.813 98.9026C142.853 98.8508 142.892 98.796 142.929 98.7442L137.811 95.2656L137.333 95.9693L142.444 99.4448C142.472 99.4021 142.499 99.3564 142.527 99.3138H142.524Z"
              fill="black"/>
        <path d="M142.524 99.3138C142.615 99.1737 142.716 99.0366 142.813 98.9026C142.853 98.8508 142.892 98.796 142.929 98.7442L137.811 95.2656L137.333 95.9693L142.444 99.4448C142.472 99.4021 142.499 99.3564 142.527 99.3138H142.524Z"
              fill="black"/>
        <path d="M141.924 100.253L136.794 96.7656L136.316 97.4693L141.5 100.994C141.616 100.738 141.765 100.485 141.924 100.25V100.253Z"
              fill="black"/>
        <path d="M141.924 100.253L136.794 96.7656L136.316 97.4693L141.5 100.994C141.616 100.738 141.765 100.485 141.924 100.25V100.253Z"
              fill="black"/>
        <path d="M140.903 101.901C140.934 101.859 140.97 101.816 141.004 101.773L135.774 98.2188L135.295 98.9224L140.556 102.498C140.659 102.291 140.769 102.087 140.906 101.901H140.903Z"
              fill="black"/>
        <path d="M140.903 101.901C140.934 101.859 140.97 101.816 141.004 101.773L135.774 98.2188L135.295 98.9224L140.556 102.498C140.659 102.291 140.769 102.087 140.906 101.901H140.903Z"
              fill="black"/>
        <path d="M140.903 101.901C140.934 101.859 140.97 101.816 141.004 101.773L135.774 98.2188L135.295 98.9224L140.556 102.498C140.659 102.291 140.769 102.087 140.906 101.901H140.903Z"
              fill="black"/>
        <path d="M140.903 101.901C140.934 101.859 140.97 101.816 141.004 101.773L135.774 98.2188L135.295 98.9224L140.556 102.498C140.659 102.291 140.769 102.087 140.906 101.901H140.903Z"
              fill="black"/>
        <path d="M142.524 99.3138C142.615 99.1737 142.716 99.0366 142.813 98.9026C142.853 98.8508 142.892 98.796 142.929 98.7442L137.811 95.2656L137.333 95.9693L142.444 99.4448C142.472 99.4021 142.499 99.3564 142.527 99.3138H142.524Z"
              fill="black"/>
        <path d="M142.524 99.3138C142.615 99.1737 142.716 99.0366 142.813 98.9026C142.853 98.8508 142.892 98.796 142.929 98.7442L137.811 95.2656L137.333 95.9693L142.444 99.4448C142.472 99.4021 142.499 99.3564 142.527 99.3138H142.524Z"
              fill="black"/>
        <path d="M141.924 100.253L136.794 96.7656L136.316 97.4693L141.5 100.994C141.616 100.738 141.765 100.485 141.924 100.25V100.253Z"
              fill="black"/>
        <path d="M141.924 100.253L136.794 96.7656L136.316 97.4693L141.5 100.994C141.616 100.738 141.765 100.485 141.924 100.25V100.253Z"
              fill="black"/>
        <path d="M140.903 101.901C140.934 101.859 140.97 101.816 141.004 101.773L135.774 98.2188L135.295 98.9224L140.556 102.498C140.659 102.291 140.769 102.087 140.906 101.901H140.903Z"
              fill="black"/>
        <path d="M140.903 101.901C140.934 101.859 140.97 101.816 141.004 101.773L135.774 98.2188L135.295 98.9224L140.556 102.498C140.659 102.291 140.769 102.087 140.906 101.901H140.903Z"
              fill="black"/>
        <path d="M140.903 101.901C140.934 101.859 140.97 101.816 141.004 101.773L135.774 98.2188L135.295 98.9224L140.556 102.498C140.659 102.291 140.769 102.087 140.906 101.901H140.903Z"
              fill="black"/>
        <path d="M140.903 101.901C140.934 101.859 140.97 101.816 141.004 101.773L135.774 98.2188L135.295 98.9224L140.556 102.498C140.659 102.291 140.769 102.087 140.906 101.901H140.903Z"
              fill="black"/>
        <path d="M142.524 99.3138C142.615 99.1737 142.716 99.0366 142.813 98.9026C142.853 98.8508 142.892 98.796 142.929 98.7442L137.811 95.2656L137.333 95.9693L142.444 99.4448C142.472 99.4021 142.499 99.3564 142.527 99.3138H142.524Z"
              fill="black"/>
        <path d="M142.524 99.3138C142.615 99.1737 142.716 99.0366 142.813 98.9026C142.853 98.8508 142.892 98.796 142.929 98.7442L137.811 95.2656L137.333 95.9693L142.444 99.4448C142.472 99.4021 142.499 99.3564 142.527 99.3138H142.524Z"
              fill="black"/>
        <path d="M141.924 100.253L136.794 96.7656L136.316 97.4693L141.5 100.994C141.616 100.738 141.765 100.485 141.924 100.25V100.253Z"
              fill="black"/>
        <path d="M141.924 100.253L136.794 96.7656L136.316 97.4693L141.5 100.994C141.616 100.738 141.765 100.485 141.924 100.25V100.253Z"
              fill="black"/>
        <path d="M140.903 101.901C140.934 101.859 140.97 101.816 141.004 101.773L135.774 98.2188L135.295 98.9224L140.556 102.498C140.659 102.291 140.769 102.087 140.906 101.901H140.903Z"
              fill="black"/>
        <path d="M140.903 101.901C140.934 101.859 140.97 101.816 141.004 101.773L135.774 98.2188L135.295 98.9224L140.556 102.498C140.659 102.291 140.769 102.087 140.906 101.901H140.903Z"
              fill="black"/>
        <path d="M140.903 101.901C140.934 101.859 140.97 101.816 141.004 101.773L135.774 98.2188L135.295 98.9224L140.556 102.498C140.659 102.291 140.769 102.087 140.906 101.901H140.903Z"
              fill="black"/>
        <path d="M140.903 101.901C140.934 101.859 140.97 101.816 141.004 101.773L135.774 98.2188L135.295 98.9224L140.556 102.498C140.659 102.291 140.769 102.087 140.906 101.901H140.903Z"
              fill="black"/>
        <path d="M142.524 99.3138C142.615 99.1737 142.716 99.0366 142.813 98.9026C142.853 98.8508 142.892 98.796 142.929 98.7442L137.811 95.2656L137.333 95.9693L142.444 99.4448C142.472 99.4021 142.499 99.3564 142.527 99.3138H142.524Z"
              fill="black"/>
        <path d="M142.524 99.3138C142.615 99.1737 142.716 99.0366 142.813 98.9026C142.853 98.8508 142.892 98.796 142.929 98.7442L137.811 95.2656L137.333 95.9693L142.444 99.4448C142.472 99.4021 142.499 99.3564 142.527 99.3138H142.524Z"
              fill="black"/>
        <path d="M141.924 100.253L136.794 96.7656L136.316 97.4693L141.5 100.994C141.616 100.738 141.765 100.485 141.924 100.25V100.253Z"
              fill="black"/>
        <path d="M141.924 100.253L136.794 96.7656L136.316 97.4693L141.5 100.994C141.616 100.738 141.765 100.485 141.924 100.25V100.253Z"
              fill="black"/>
        <path d="M140.903 101.901C140.934 101.859 140.97 101.816 141.004 101.773L135.774 98.2188L135.295 98.9224L140.556 102.498C140.659 102.291 140.769 102.087 140.906 101.901H140.903Z"
              fill="black"/>
        <path d="M140.903 101.901C140.934 101.859 140.97 101.816 141.004 101.773L135.774 98.2188L135.295 98.9224L140.556 102.498C140.659 102.291 140.769 102.087 140.906 101.901H140.903Z"
              fill="black"/>
        <path d="M140.903 101.901C140.934 101.859 140.97 101.816 141.004 101.773L135.774 98.2188L135.295 98.9224L140.556 102.498C140.659 102.291 140.769 102.087 140.906 101.901H140.903Z"
              fill="black"/>
        <path d="M140.903 101.901C140.934 101.859 140.97 101.816 141.004 101.773L135.774 98.2188L135.295 98.9224L140.556 102.498C140.659 102.291 140.769 102.087 140.906 101.901H140.903Z"
              fill="black"/>
        <path d="M142.524 99.3138C142.615 99.1737 142.716 99.0366 142.813 98.9026C142.853 98.8508 142.892 98.796 142.929 98.7442L137.811 95.2656L137.333 95.9693L142.444 99.4448C142.472 99.4021 142.499 99.3564 142.527 99.3138H142.524Z"
              fill="black"/>
        <path d="M142.524 99.3138C142.615 99.1737 142.716 99.0366 142.813 98.9026C142.853 98.8508 142.892 98.796 142.929 98.7442L137.811 95.2656L137.333 95.9693L142.444 99.4448C142.472 99.4021 142.499 99.3564 142.527 99.3138H142.524Z"
              fill="black"/>
        <path d="M141.924 100.253L136.794 96.7656L136.316 97.4693L141.5 100.994C141.616 100.738 141.765 100.485 141.924 100.25V100.253Z"
              fill="black"/>
        <path d="M141.924 100.253L136.794 96.7656L136.316 97.4693L141.5 100.994C141.616 100.738 141.765 100.485 141.924 100.25V100.253Z"
              fill="black"/>
        <path d="M140.903 101.901C140.934 101.859 140.97 101.816 141.004 101.773L135.774 98.2188L135.295 98.9224L140.556 102.498C140.659 102.291 140.769 102.087 140.906 101.901H140.903Z"
              fill="black"/>
        <path d="M140.903 101.901C140.934 101.859 140.97 101.816 141.004 101.773L135.774 98.2188L135.295 98.9224L140.556 102.498C140.659 102.291 140.769 102.087 140.906 101.901H140.903Z"
              fill="black"/>
        <path d="M140.903 101.901C140.934 101.859 140.97 101.816 141.004 101.773L135.774 98.2188L135.295 98.9224L140.556 102.498C140.659 102.291 140.769 102.087 140.906 101.901H140.903Z"
              fill="black"/>
        <path d="M140.903 101.901C140.934 101.859 140.97 101.816 141.004 101.773L135.774 98.2188L135.295 98.9224L140.556 102.498C140.659 102.291 140.769 102.087 140.906 101.901H140.903Z"
              fill="black"/>
        <path d="M142.524 99.3138C142.615 99.1737 142.716 99.0366 142.813 98.9026C142.853 98.8508 142.892 98.796 142.929 98.7442L137.811 95.2656L137.333 95.9693L142.444 99.4448C142.472 99.4021 142.499 99.3564 142.527 99.3138H142.524Z"
              fill="black"/>
        <path d="M142.524 99.3138C142.615 99.1737 142.716 99.0366 142.813 98.9026C142.853 98.8508 142.892 98.796 142.929 98.7442L137.811 95.2656L137.333 95.9693L142.444 99.4448C142.472 99.4021 142.499 99.3564 142.527 99.3138H142.524Z"
              fill="black"/>
        <path d="M141.924 100.253L136.794 96.7656L136.316 97.4693L141.5 100.994C141.616 100.738 141.765 100.485 141.924 100.25V100.253Z"
              fill="black"/>
        <path d="M141.924 100.253L136.794 96.7656L136.316 97.4693L141.5 100.994C141.616 100.738 141.765 100.485 141.924 100.25V100.253Z"
              fill="black"/>
        <path d="M140.903 101.901C140.934 101.859 140.97 101.816 141.004 101.773L135.774 98.2188L135.295 98.9224L140.556 102.498C140.659 102.291 140.769 102.087 140.906 101.901H140.903Z"
              fill="black"/>
        <path d="M140.903 101.901C140.934 101.859 140.97 101.816 141.004 101.773L135.774 98.2188L135.295 98.9224L140.556 102.498C140.659 102.291 140.769 102.087 140.906 101.901H140.903Z"
              fill="black"/>
        <path d="M140.903 101.901C140.934 101.859 140.97 101.816 141.004 101.773L135.774 98.2188L135.295 98.9224L140.556 102.498C140.659 102.291 140.769 102.087 140.906 101.901H140.903Z"
              fill="black"/>
        <path d="M140.903 101.901C140.934 101.859 140.97 101.816 141.004 101.773L135.774 98.2188L135.295 98.9224L140.556 102.498C140.659 102.291 140.769 102.087 140.906 101.901H140.903Z"
              fill="black"/>
        <path d="M142.524 99.3138C142.615 99.1737 142.716 99.0366 142.813 98.9026C142.853 98.8508 142.892 98.796 142.929 98.7442L137.811 95.2656L137.333 95.9693L142.444 99.4448C142.472 99.4021 142.499 99.3564 142.527 99.3138H142.524Z"
              fill="black"/>
        <path d="M142.524 99.3138C142.615 99.1737 142.716 99.0366 142.813 98.9026C142.853 98.8508 142.892 98.796 142.929 98.7442L137.811 95.2656L137.333 95.9693L142.444 99.4448C142.472 99.4021 142.499 99.3564 142.527 99.3138H142.524Z"
              fill="black"/>
        <path d="M141.924 100.253L136.794 96.7656L136.316 97.4693L141.5 100.994C141.616 100.738 141.765 100.485 141.924 100.25V100.253Z"
              fill="black"/>
        <path d="M141.924 100.253L136.794 96.7656L136.316 97.4693L141.5 100.994C141.616 100.738 141.765 100.485 141.924 100.25V100.253Z"
              fill="black"/>
        <path d="M140.903 101.901C140.934 101.859 140.97 101.816 141.004 101.773L135.774 98.2188L135.295 98.9224L140.556 102.498C140.659 102.291 140.769 102.087 140.906 101.901H140.903Z"
              fill="black"/>
        <path d="M140.903 101.901C140.934 101.859 140.97 101.816 141.004 101.773L135.774 98.2188L135.295 98.9224L140.556 102.498C140.659 102.291 140.769 102.087 140.906 101.901H140.903Z"
              fill="black"/>
        <path d="M140.903 101.901C140.934 101.859 140.97 101.816 141.004 101.773L135.774 98.2188L135.295 98.9224L140.556 102.498C140.659 102.291 140.769 102.087 140.906 101.901H140.903Z"
              fill="black"/>
        <path d="M140.903 101.901C140.934 101.859 140.97 101.816 141.004 101.773L135.774 98.2188L135.295 98.9224L140.556 102.498C140.659 102.291 140.769 102.087 140.906 101.901H140.903Z"
              fill="black"/>
        <path d="M142.524 99.3138C142.615 99.1737 142.716 99.0366 142.813 98.9026C142.853 98.8508 142.892 98.796 142.929 98.7442L137.811 95.2656L137.333 95.9693L142.444 99.4448C142.472 99.4021 142.499 99.3564 142.527 99.3138H142.524Z"
              fill="black"/>
        <path d="M142.524 99.3138C142.615 99.1737 142.716 99.0366 142.813 98.9026C142.853 98.8508 142.892 98.796 142.929 98.7442L137.811 95.2656L137.333 95.9693L142.444 99.4448C142.472 99.4021 142.499 99.3564 142.527 99.3138H142.524Z"
              fill="black"/>
        <path d="M141.924 100.253L136.794 96.7656L136.316 97.4693L141.5 100.994C141.616 100.738 141.765 100.485 141.924 100.25V100.253Z"
              fill="black"/>
        <path d="M141.924 100.253L136.794 96.7656L136.316 97.4693L141.5 100.994C141.616 100.738 141.765 100.485 141.924 100.25V100.253Z"
              fill="black"/>
        <path d="M140.903 101.901C140.934 101.859 140.97 101.816 141.004 101.773L135.774 98.2188L135.295 98.9224L140.556 102.498C140.659 102.291 140.769 102.087 140.906 101.901H140.903Z"
              fill="black"/>
        <path d="M140.903 101.901C140.934 101.859 140.97 101.816 141.004 101.773L135.774 98.2188L135.295 98.9224L140.556 102.498C140.659 102.291 140.769 102.087 140.906 101.901H140.903Z"
              fill="black"/>
        <path d="M140.903 101.901C140.934 101.859 140.97 101.816 141.004 101.773L135.774 98.2188L135.295 98.9224L140.556 102.498C140.659 102.291 140.769 102.087 140.906 101.901H140.903Z"
              fill="black"/>
        <path d="M140.903 101.901C140.934 101.859 140.97 101.816 141.004 101.773L135.774 98.2188L135.295 98.9224L140.556 102.498C140.659 102.291 140.769 102.087 140.906 101.901H140.903Z"
              fill="black"/>
        <path d="M142.524 99.3138C142.615 99.1737 142.716 99.0366 142.813 98.9026C142.853 98.8508 142.892 98.796 142.929 98.7442L137.811 95.2656L137.333 95.9693L142.444 99.4448C142.472 99.4021 142.499 99.3564 142.527 99.3138H142.524Z"
              fill="black"/>
        <path d="M142.524 99.3138C142.615 99.1737 142.716 99.0366 142.813 98.9026C142.853 98.8508 142.892 98.796 142.929 98.7442L137.811 95.2656L137.333 95.9693L142.444 99.4448C142.472 99.4021 142.499 99.3564 142.527 99.3138H142.524Z"
              fill="black"/>
        <path d="M141.924 100.253L136.794 96.7656L136.316 97.4693L141.5 100.994C141.616 100.738 141.765 100.485 141.924 100.25V100.253Z"
              fill="black"/>
        <path d="M141.924 100.253L136.794 96.7656L136.316 97.4693L141.5 100.994C141.616 100.738 141.765 100.485 141.924 100.25V100.253Z"
              fill="black"/>
        <path d="M140.903 101.901C140.934 101.859 140.97 101.816 141.004 101.773L135.774 98.2188L135.295 98.9224L140.556 102.498C140.659 102.291 140.769 102.087 140.906 101.901H140.903Z"
              fill="black"/>
        <path d="M140.903 101.901C140.934 101.859 140.97 101.816 141.004 101.773L135.774 98.2188L135.295 98.9224L140.556 102.498C140.659 102.291 140.769 102.087 140.906 101.901H140.903Z"
              fill="black"/>
        <path d="M140.903 101.901C140.934 101.859 140.97 101.816 141.004 101.773L135.774 98.2188L135.295 98.9224L140.556 102.498C140.659 102.291 140.769 102.087 140.906 101.901H140.903Z"
              fill="black"/>
        <path d="M140.903 101.901C140.934 101.859 140.97 101.816 141.004 101.773L135.774 98.2188L135.295 98.9224L140.556 102.498C140.659 102.291 140.769 102.087 140.906 101.901H140.903Z"
              fill="black"/>
        <path d="M142.524 99.3138C142.615 99.1737 142.716 99.0366 142.813 98.9026C142.853 98.8508 142.892 98.796 142.929 98.7442L137.811 95.2656L137.333 95.9693L142.444 99.4448C142.472 99.4021 142.499 99.3564 142.527 99.3138H142.524Z"
              fill="black"/>
        <path d="M142.524 99.3138C142.615 99.1737 142.716 99.0366 142.813 98.9026C142.853 98.8508 142.892 98.796 142.929 98.7442L137.811 95.2656L137.333 95.9693L142.444 99.4448C142.472 99.4021 142.499 99.3564 142.527 99.3138H142.524Z"
              fill="black"/>
        <path d="M141.924 100.253L136.794 96.7656L136.316 97.4693L141.5 100.994C141.616 100.738 141.765 100.485 141.924 100.25V100.253Z"
              fill="black"/>
        <path d="M141.924 100.253L136.794 96.7656L136.316 97.4693L141.5 100.994C141.616 100.738 141.765 100.485 141.924 100.25V100.253Z"
              fill="black"/>
        <path d="M140.903 101.901C140.934 101.859 140.97 101.816 141.004 101.773L135.774 98.2188L135.295 98.9224L140.556 102.498C140.659 102.291 140.769 102.087 140.906 101.901H140.903Z"
              fill="black"/>
        <path d="M140.903 101.901C140.934 101.859 140.97 101.816 141.004 101.773L135.774 98.2188L135.295 98.9224L140.556 102.498C140.659 102.291 140.769 102.087 140.906 101.901H140.903Z"
              fill="black"/>
        <path d="M140.903 101.901C140.934 101.859 140.97 101.816 141.004 101.773L135.774 98.2188L135.295 98.9224L140.556 102.498C140.659 102.291 140.769 102.087 140.906 101.901H140.903Z"
              fill="black"/>
        <path d="M140.903 101.901C140.934 101.859 140.97 101.816 141.004 101.773L135.774 98.2188L135.295 98.9224L140.556 102.498C140.659 102.291 140.769 102.087 140.906 101.901H140.903Z"
              fill="black"/>
        <path d="M142.524 99.3138C142.615 99.1737 142.716 99.0366 142.813 98.9026C142.853 98.8508 142.892 98.796 142.929 98.7442L137.811 95.2656L137.333 95.9693L142.444 99.4448C142.472 99.4021 142.499 99.3564 142.527 99.3138H142.524Z"
              fill="black"/>
        <path d="M142.524 99.3138C142.615 99.1737 142.716 99.0366 142.813 98.9026C142.853 98.8508 142.892 98.796 142.929 98.7442L137.811 95.2656L137.333 95.9693L142.444 99.4448C142.472 99.4021 142.499 99.3564 142.527 99.3138H142.524Z"
              fill="black"/>
        <path d="M141.924 100.253L136.794 96.7656L136.316 97.4693L141.5 100.994C141.616 100.738 141.765 100.485 141.924 100.25V100.253Z"
              fill="black"/>
        <path d="M141.924 100.253L136.794 96.7656L136.316 97.4693L141.5 100.994C141.616 100.738 141.765 100.485 141.924 100.25V100.253Z"
              fill="black"/>
        <path d="M140.903 101.901C140.934 101.859 140.97 101.816 141.004 101.773L135.774 98.2188L135.295 98.9224L140.556 102.498C140.659 102.291 140.769 102.087 140.906 101.901H140.903Z"
              fill="black"/>
        <path d="M140.903 101.901C140.934 101.859 140.97 101.816 141.004 101.773L135.774 98.2188L135.295 98.9224L140.556 102.498C140.659 102.291 140.769 102.087 140.906 101.901H140.903Z"
              fill="black"/>
        <path d="M140.903 101.901C140.934 101.859 140.97 101.816 141.004 101.773L135.774 98.2188L135.295 98.9224L140.556 102.498C140.659 102.291 140.769 102.087 140.906 101.901H140.903Z"
              fill="black"/>
        <path d="M140.903 101.901C140.934 101.859 140.97 101.816 141.004 101.773L135.774 98.2188L135.295 98.9224L140.556 102.498C140.659 102.291 140.769 102.087 140.906 101.901H140.903Z"
              fill="black"/>
    </g>
    <defs>
        <clipPath id="clip0_2619_883">
            <rect width="236" height="236" fill="white"/>
        </clipPath>
    </defs>
</svg>
